<svg width="13" height="23" viewBox="0 0 13 23" fill="none" xmlns="http://www.w3.org/2000/svg">
<path d="M5 11.5C5 11.1803 5.12896 10.874 5.3577 10.6506L6.45048 9.58333L12.0772 4.09128C12.857 3.3301 12.8561 2.0758 12.0752 1.31571V1.31571C11.3229 0.583385 10.1242 0.583386 9.37178 1.31571L1.11731 9.35023C-0.0927101 10.528 -0.0927087 12.472 1.11731 13.6498L9.37178 21.6843C10.1242 22.4166 11.3229 22.4166 12.0752 21.6843V21.6843C12.8561 20.9242 12.857 19.6699 12.0772 18.9087L6.45048 13.4167L5.3577 12.3494C5.12896 12.126 5 11.8197 5 11.5V11.5Z" fill="#5CAA47"/>
</svg>
