<svg width="428" height="181" viewBox="0 0 428 181" fill="none" xmlns="http://www.w3.org/2000/svg">
<path d="M0 0V64.1781C0 64.1781 23.1833 89.317 46.9611 96.415C70.7389 103.513 101.248 98.7063 120.078 101.443C142.072 104.639 148.611 107.654 178.333 125.99C208.056 144.327 238.372 112.977 298.411 152.608C314.905 163.495 340.617 154.382 364.989 154.382C389.361 154.382 428 181 428 181V0H0Z" fill="#559A42"/>
<path d="M0 0V38.009C0 38.009 23.1833 67.7033 46.9611 76.0876C70.7389 84.4718 101.248 78.794 120.078 82.0264C142.072 85.8021 148.611 89.3626 178.333 111.022C208.056 132.681 238.372 95.6508 298.411 142.463C314.905 155.323 340.617 144.559 364.989 144.559C389.361 144.559 428 176 428 176V0H0Z" fill="#5CAA47" stroke="#5CAA47"/>
</svg>
