<svg width="428" height="217" viewBox="0 0 428 217" fill="none" xmlns="http://www.w3.org/2000/svg">
<path d="M0 1.00008V77.3007C0 77.3007 23.1833 107.188 46.9611 115.627C70.7389 124.066 101.248 118.351 120.078 121.604C142.072 125.405 148.611 128.988 178.333 150.788C208.056 172.589 238.372 135.317 298.411 182.434C314.905 195.378 340.617 184.544 364.989 184.544C389.361 184.544 428 216.189 428 216.189V1.00008H0Z" fill="#559A42"/>
<path d="M0 0.999939V46.1885C0 46.1885 23.1833 81.4916 46.9611 91.4596C70.7389 101.428 101.248 94.6773 120.078 98.5202C142.072 103.009 148.611 107.242 178.333 132.993C208.056 158.743 238.372 114.718 298.411 170.373C314.905 185.662 340.617 172.865 364.989 172.865C389.361 172.865 428 210.244 428 210.244V0.999939H0Z" fill="#5CAA47" stroke="#5CAA47" stroke-width="1.18889"/>
</svg>
