<svg width="428" height="139" viewBox="0 0 428 139" fill="none" xmlns="http://www.w3.org/2000/svg">
<path d="M428.276 1.00002V49.9314C428.276 49.9314 405.078 69.098 381.285 74.5098C357.491 79.9216 326.963 76.2567 308.121 78.3431C286.112 80.7802 279.569 83.0784 249.828 97.0588C220.086 111.039 189.75 87.1373 129.672 117.353C113.168 125.654 87.4397 118.706 63.0517 118.706C38.6638 118.706 0 139 0 139V1.00002H428.276Z" fill="#559A42"/>
<path d="M428.276 1.00015V29.9794C428.276 29.9794 405.078 52.6192 381.285 59.0117C357.491 65.4041 326.963 61.0751 308.121 63.5396C286.112 66.4183 279.569 69.133 249.828 85.6467C220.086 102.16 189.75 73.9273 129.672 109.618C113.168 119.423 87.4397 111.216 63.0517 111.216C38.6638 111.216 0 135.188 0 135.188V1.00015H428.276Z" fill="#5CAA47" stroke="#5CAA47" stroke-width="1.18966"/>
</svg>
