<svg width="428" height="114" viewBox="0 0 428 114" fill="none" xmlns="http://www.w3.org/2000/svg">
<path d="M0 114V73.5784C0 73.5784 23.1833 57.7451 46.9611 53.2745C70.7389 48.8039 101.248 51.8314 120.078 50.1078C142.072 48.0946 148.611 46.1961 178.333 34.647C208.056 23.098 238.372 42.8431 298.411 17.8823C314.905 11.0252 340.617 16.7647 364.989 16.7647C389.361 16.7647 428 0 428 0V114H0Z" fill="#559A42"/>
<path d="M0 114V90.0606C0 90.0606 23.1833 71.3581 46.9611 66.0774C70.7389 60.7967 101.248 64.3728 120.078 62.3369C142.072 59.9589 148.611 57.7163 178.333 44.0745C208.056 30.4327 238.372 53.7558 298.411 24.2719C314.905 16.1722 340.617 22.9518 364.989 22.9518C389.361 22.9518 428 3.14917 428 3.14917V114H0Z" fill="#5CAA47" stroke="#5CAA47"/>
</svg>
