<svg width="22" height="24" viewBox="0 0 22 24" fill="none" xmlns="http://www.w3.org/2000/svg">
<path d="M14.6508 21.5456C14.651 22.1649 14.4171 22.7613 13.9961 23.2153C13.575 23.6694 12.9979 23.9475 12.3805 23.9939L12.1964 24.0001H9.74197C9.12275 24.0002 8.52634 23.7664 8.0723 23.3453C7.61825 22.9243 7.34014 22.3472 7.29369 21.7297L7.28756 21.5456H14.6508ZM10.9692 0.683105C13.1965 0.683069 15.3368 1.54816 16.9386 3.09589C18.5404 4.64362 19.4784 6.75298 19.5547 8.97903L19.5596 9.27356V13.8928L21.7956 18.3647C21.8932 18.5598 21.942 18.7757 21.9379 18.9938C21.9338 19.212 21.8769 19.4258 21.7721 19.6172C21.6673 19.8085 21.5176 19.9716 21.336 20.0924C21.1544 20.2133 20.9461 20.2883 20.7292 20.3111L20.588 20.3184H1.35033C1.13209 20.3185 0.917082 20.2656 0.723741 20.1644C0.530399 20.0632 0.364485 19.9166 0.240216 19.7372C0.115947 19.5578 0.0370279 19.3509 0.0102219 19.1343C-0.0165842 18.9177 0.00952212 18.6979 0.0863035 18.4936L0.142755 18.3647L2.37873 13.8928V9.27356C2.37873 6.99523 3.28379 4.81021 4.89481 3.19919C6.50584 1.58817 8.69085 0.683105 10.9692 0.683105V0.683105Z" fill="white"/>
</svg>
