<svg width="51" height="51" viewBox="0 0 51 51" fill="none" xmlns="http://www.w3.org/2000/svg">
<path d="M25.5 0C11.424 0 0 11.424 0 25.5C0 39.576 11.424 51 25.5 51C39.576 51 51 39.576 51 25.5C51 11.424 39.576 0 25.5 0ZM25.5 10.2C30.4215 10.2 34.425 14.2035 34.425 19.125C34.425 24.0465 30.4215 28.05 25.5 28.05C20.5785 28.05 16.575 24.0465 16.575 19.125C16.575 14.2035 20.5785 10.2 25.5 10.2ZM25.5 45.9C20.3235 45.9 14.2035 43.809 9.843 38.556C14.3096 35.0516 19.8227 33.1469 25.5 33.1469C31.1773 33.1469 36.6904 35.0516 41.157 38.556C36.7965 43.809 30.6765 45.9 25.5 45.9Z" fill="white"/>
</svg>
