<svg width="30" height="30" viewBox="0 0 30 30" fill="none" xmlns="http://www.w3.org/2000/svg">
<path d="M15.0626 0C19.0584 0.00198264 22.8089 1.54996 25.629 4.35982C28.4493 7.16957 30.0015 10.9049 30 14.8764C29.9967 22.9911 23.4286 29.6084 15.3094 29.7399L15.0629 29.7419H15.0567C12.5952 29.7411 10.1759 29.1362 8.01949 27.9873L7.91871 27.9329L0 30L2.1191 22.2963C0.812109 20.0424 0.124336 17.4848 0.125391 14.8645C0.128672 6.66843 6.82957 0 15.0626 0ZM15.0677 2.51095C8.21965 2.51095 2.65008 8.05336 2.64738 14.8658C2.64645 17.1647 3.28301 19.405 4.48945 21.3516L4.54547 21.4413L4.84078 21.9089L3.58652 26.4681L8.28539 25.2416L8.73879 25.5091C10.6146 26.6169 12.7607 27.2117 14.9517 27.231L15.0578 27.2314H15.0629C21.9057 27.2314 27.4752 21.6887 27.478 14.8757C27.4792 11.5743 26.1892 8.46983 23.8451 6.1344C21.501 3.79908 18.3838 2.51212 15.0677 2.51095ZM9.77437 7.99971C10.023 7.99971 10.2724 8.00204 10.4897 8.01312C10.7189 8.02432 11.0265 7.92647 11.3293 8.6506C11.4456 8.92817 11.6223 9.357 11.8032 9.79505L11.842 9.88893C12.1332 10.5939 12.4243 11.2968 12.4804 11.4085C12.5735 11.5942 12.6356 11.8114 12.5113 12.0591C12.3871 12.3072 12.3246 12.4619 12.1382 12.6791C11.9515 12.8958 11.7463 13.1634 11.5784 13.3297C11.5692 13.3388 11.5601 13.3478 11.5509 13.3569L11.5238 13.3846C11.3573 13.5559 11.2181 13.7523 11.4148 14.0875C11.6324 14.4595 12.3813 15.6761 13.4909 16.6609C14.9164 17.9263 16.1191 18.3186 16.4924 18.5047C16.8655 18.6906 17.0834 18.6595 17.301 18.4114C17.5188 18.1636 18.2339 17.327 18.4828 16.9551C18.7316 16.5833 18.9804 16.6454 19.3226 16.7693C19.4851 16.8282 19.9852 17.0621 20.5052 17.3115L20.667 17.3891C21.1876 17.6399 21.6954 17.8892 21.8728 17.9776C22.2461 18.1636 22.495 18.2566 22.5881 18.4114C22.6814 18.5665 22.6814 19.31 22.3704 20.1777C22.0595 21.0454 20.5683 21.8372 19.8512 21.9441C19.2082 22.0395 18.3946 22.0794 17.5004 21.7969C16.9586 21.6255 16.2632 21.397 15.3727 21.0143C11.6287 19.4056 9.1834 15.6535 8.99695 15.4058L8.9843 15.389C8.75684 15.0865 7.47281 13.3545 7.47281 11.5632C7.47281 9.7351 8.43715 8.8365 8.7791 8.46458C9.12129 8.09301 9.52559 7.99971 9.77437 7.99971Z" fill="white"/>
</svg>
