<svg width="182" height="158" viewBox="0 0 182 158" fill="none" xmlns="http://www.w3.org/2000/svg">
<g clip-path="url(#clip0_109_4446)">
<rect x="1.5" y="1.5" width="179" height="155" rx="23.5" fill="white" stroke="#5CAA47" stroke-width="3"/>
<path d="M134.849 64.2208H117.665C117.194 64.2208 116.742 64.0582 116.409 63.7688C116.075 63.4795 115.888 63.087 115.888 62.6778V47.4617C115.888 47.0524 116.075 46.66 116.409 46.3706C116.742 46.0813 117.194 45.9187 117.665 45.9187H134.849C135.321 45.9187 135.773 46.0813 136.106 46.3706C136.439 46.66 136.627 47.0524 136.627 47.4617V62.6778C136.627 63.087 136.439 63.4795 136.106 63.7688C135.773 64.0582 135.321 64.2208 134.849 64.2208ZM119.443 61.1348H133.072V49.0046H119.443V61.1348Z" fill="#95C347"/>
<path d="M163.524 64.2208H141.603C141.132 64.2208 140.68 64.0582 140.347 63.7688C140.013 63.4795 139.826 63.087 139.826 62.6778V47.4617C139.826 47.0524 140.013 46.66 140.347 46.3706C140.68 46.0813 141.132 45.9187 141.603 45.9187H160.324C160.796 45.9187 161.248 46.0813 161.581 46.3706C161.914 46.66 162.102 47.0524 162.102 47.4617C162.102 47.8709 161.914 48.2634 161.581 48.5527C161.248 48.8421 160.796 49.0046 160.324 49.0046H143.381V61.1348H163.524C163.995 61.1348 164.447 61.2974 164.78 61.5868C165.114 61.8761 165.301 62.2686 165.301 62.6778C165.301 63.087 165.114 63.4795 164.78 63.7688C164.447 64.0582 163.995 64.2208 163.524 64.2208V64.2208Z" fill="#95C347"/>
<path d="M50.2819 95.7302C49.2574 95.7303 48.2559 95.4667 47.4039 94.9727C46.552 94.4786 45.888 93.7764 45.4958 92.9547C45.1037 92.133 45.001 91.2288 45.2008 90.3565C45.4006 89.4842 45.8938 88.6828 46.6182 88.0539C47.3426 87.4249 48.2656 86.9966 49.2704 86.823C50.2752 86.6495 51.3168 86.7385 52.2633 87.0788C53.2098 87.4192 54.0189 87.9955 54.5881 88.735C55.1573 89.4745 55.4611 90.344 55.4611 91.2334C55.4596 92.4255 54.9135 93.5685 53.9425 94.4115C52.9716 95.2545 51.6551 95.7288 50.2819 95.7302ZM50.2819 89.8225C49.9605 89.8224 49.6462 89.905 49.3788 90.06C49.1115 90.2149 48.903 90.4353 48.7799 90.693C48.6568 90.9508 48.6245 91.2345 48.6871 91.5083C48.7498 91.782 48.9045 92.0334 49.1318 92.2308C49.359 92.4282 49.6486 92.5626 49.9639 92.6171C50.2792 92.6716 50.606 92.6437 50.903 92.537C51.2 92.4302 51.4539 92.2493 51.6325 92.0173C51.8111 91.7853 51.9064 91.5125 51.9064 91.2334C51.9059 90.8595 51.7345 90.501 51.43 90.2365C51.1255 89.972 50.7127 89.8232 50.2819 89.8225V89.8225Z" fill="#95C347"/>
<path d="M80.9438 95.7302C79.9193 95.7303 78.9177 95.4667 78.0658 94.9727C77.2139 94.4786 76.5498 93.7764 76.1577 92.9547C75.7655 92.133 75.6628 91.2288 75.8626 90.3565C76.0624 89.4842 76.5557 88.6828 77.2801 88.0539C78.0045 87.4249 78.9274 86.9966 79.9323 86.823C80.9371 86.6495 81.9786 86.7385 82.9252 87.0788C83.8717 87.4192 84.6807 87.9955 85.2499 88.735C85.8192 89.4745 86.123 90.344 86.123 91.2334C86.1215 92.4255 85.5753 93.5685 84.6044 94.4115C83.6335 95.2545 82.317 95.7288 80.9438 95.7302ZM80.9438 89.8225C80.6223 89.8224 80.308 89.905 80.0407 90.06C79.7733 90.2149 79.5649 90.4353 79.4418 90.693C79.3187 90.9508 79.2864 91.2345 79.349 91.5083C79.4116 91.782 79.5664 92.0334 79.7936 92.2308C80.0209 92.4282 80.3105 92.5626 80.6258 92.6171C80.941 92.6716 81.2678 92.6437 81.5649 92.537C81.8619 92.4302 82.1157 92.2493 82.2943 92.0173C82.4729 91.7853 82.5683 91.5125 82.5683 91.2334C82.5677 90.8595 82.3964 90.501 82.0919 90.2365C81.7874 89.972 81.3745 89.8232 80.9438 89.8225V89.8225Z" fill="#95C347"/>
<path d="M143.042 95.7302C142.018 95.7302 141.016 95.4665 140.164 94.9724C139.313 94.4783 138.649 93.776 138.257 92.9543C137.865 92.1326 137.762 91.2284 137.962 90.3561C138.162 89.4838 138.655 88.6826 139.379 88.0537C140.104 87.4248 141.027 86.9965 142.032 86.823C143.036 86.6495 144.078 86.7385 145.024 87.0789C145.971 87.4192 146.78 87.9956 147.349 88.7351C147.918 89.4746 148.222 90.344 148.222 91.2334C148.221 92.4256 147.674 93.5687 146.703 94.4117C145.732 95.2547 144.416 95.7289 143.042 95.7302V95.7302ZM143.042 89.8225C142.721 89.8225 142.407 89.9053 142.139 90.0603C141.872 90.2153 141.664 90.4357 141.541 90.6935C141.418 90.9513 141.386 91.235 141.448 91.5087C141.511 91.7823 141.666 92.0337 141.893 92.231C142.12 92.4284 142.41 92.5627 142.725 92.6172C143.04 92.6716 143.367 92.6437 143.664 92.5369C143.961 92.4301 144.215 92.2493 144.394 92.0172C144.572 91.7852 144.667 91.5124 144.667 91.2334C144.667 90.8593 144.496 90.5006 144.191 90.2361C143.886 89.9716 143.473 89.8228 143.042 89.8225Z" fill="#95C347"/>
<path d="M108.616 24.0049H50.2819C49.9049 24.0049 49.5376 24.1089 49.2332 24.302C48.9288 24.495 48.703 24.7671 48.5884 25.0788L36.3354 58.407L24.676 53.2843L31.1896 35.5642C33.0829 30.4138 37.3577 27.0859 42.0798 27.0859H44.4429C44.9143 27.0859 45.3664 26.9234 45.6997 26.634C46.033 26.3447 46.2203 25.9522 46.2203 25.543C46.2203 25.1337 46.033 24.7413 45.6997 24.4519C45.3664 24.1626 44.9143 24 44.4429 24H42.0783C35.7787 24 30.1751 28.171 27.802 34.6261L12.0839 77.3873C12.0284 77.539 12.0001 77.6972 12 77.8564V91.2333C12 91.6425 12.1873 92.035 12.5206 92.3244C12.8539 92.6137 13.306 92.7763 13.7773 92.7763H25.6017C26.073 92.7763 26.5251 92.6137 26.8584 92.3244C27.1917 92.035 27.379 91.6425 27.379 91.2333C27.379 90.8241 27.1917 90.4316 26.8584 90.1423C26.5251 89.8529 26.073 89.6903 25.6017 89.6903H15.5547V80.556L29.2758 87.5703V91.2333C29.2758 91.6425 29.463 92.035 29.7964 92.3244C30.1297 92.6137 30.5817 92.7763 31.0531 92.7763C31.5245 92.7763 31.9766 92.6137 32.3099 92.3244C32.6432 92.035 32.8305 91.6425 32.8305 91.2333V78.0965L35.4695 70.918H106.838V89.6903H99.7681C99.2967 89.6903 98.8446 89.8529 98.5113 90.1423C98.178 90.4316 97.9907 90.8241 97.9907 91.2333C97.9907 91.6425 98.178 92.035 98.5113 92.3244C98.8446 92.6137 99.2967 92.7763 99.7681 92.7763H108.616C109.087 92.7763 109.539 92.6137 109.872 92.3244C110.206 92.035 110.393 91.6425 110.393 91.2333V25.5479C110.393 25.1387 110.206 24.7462 109.872 24.4569C109.539 24.1675 109.087 24.0049 108.616 24.0049V24.0049ZM83.5644 27.0909H97.6857V67.832H83.5672L83.5644 27.0909ZM80.0097 67.832H65.8884V27.0909H80.0125L80.0097 67.832ZM15.9016 77.1516L23.5798 56.2659L35.2391 61.3886L29.359 77.3873C29.3034 77.539 29.2751 77.6972 29.2751 77.8564V83.9894L15.9016 77.1516ZM51.58 27.0909H62.3337V67.832H36.6034L51.58 27.0909ZM101.24 67.832V27.0909H106.838V67.832H101.24Z" fill="#FFAE34"/>
<path d="M169.183 77.5804L161.537 41.0898C161.314 40.0235 160.666 39.0591 159.708 38.3647C158.749 37.6703 157.54 37.2899 156.292 37.2898H121.22C119.806 37.2911 118.451 37.7792 117.451 38.647C116.452 39.5148 115.889 40.6914 115.888 41.9187V91.232C115.888 91.6412 116.075 92.0337 116.409 92.323C116.742 92.6124 117.194 92.775 117.665 92.775H124.256C124.728 92.775 125.18 92.6124 125.513 92.323C125.846 92.0337 126.034 91.6412 126.034 91.232C126.034 90.8228 125.846 90.4303 125.513 90.1409C125.18 89.8516 124.728 89.689 124.256 89.689H119.443V41.9187C119.443 41.5095 119.63 41.117 119.963 40.8277C120.297 40.5383 120.749 40.3757 121.22 40.3757H156.292C156.708 40.3757 157.111 40.5025 157.431 40.7341C157.751 40.9656 157.966 41.2872 158.041 41.6428L165.656 77.9952V89.6896H161.867C161.396 89.6896 160.944 89.8522 160.61 90.1416C160.277 90.4309 160.09 90.8234 160.09 91.2326C160.09 91.6418 160.277 92.0343 160.61 92.3236C160.944 92.613 161.396 92.7756 161.867 92.7756H167.434C167.905 92.7756 168.357 92.613 168.691 92.3236C169.024 92.0343 169.211 91.6418 169.211 91.2326V77.8563C169.211 77.7638 169.202 77.6714 169.183 77.5804Z" fill="#5CAA47"/>
<path d="M50.2819 79.5227C47.6132 79.5226 45.0044 80.2095 42.7854 81.4965C40.5664 82.7836 38.8369 84.613 37.8156 86.7534C36.7942 88.8938 36.527 91.2491 37.0476 93.5214C37.5682 95.7936 38.8533 97.8809 40.7403 99.5191C42.6274 101.157 45.0316 102.273 47.6491 102.725C50.2665 103.177 52.9795 102.945 55.4451 102.058C57.9106 101.171 60.0179 99.67 61.5004 97.7436C62.983 95.8173 63.7742 93.5525 63.7741 91.2357C63.77 88.1303 62.3471 85.1532 59.8178 82.9573C57.2884 80.7615 53.859 79.5263 50.2819 79.5227V79.5227ZM50.2819 99.8634C48.3163 99.8635 46.3948 99.3576 44.7604 98.4096C43.126 97.4617 41.852 96.1143 41.0997 94.5378C40.3474 92.9613 40.1505 91.2265 40.5339 89.5529C40.9173 87.8793 41.8637 86.3419 43.2536 85.1352C44.6435 83.9286 46.4143 83.1068 48.3421 82.7738C50.27 82.4409 52.2682 82.6117 54.0842 83.2647C55.9002 83.9177 57.4524 85.0235 58.5445 86.4424C59.6365 87.8612 60.2194 89.5293 60.2194 91.2357C60.2157 93.5225 59.1674 95.7148 57.3045 97.3317C55.4416 98.9486 52.9162 99.8581 50.2819 99.8609V99.8634Z" fill="#5CAA47"/>
<path d="M80.9438 79.5227C78.2751 79.5226 75.6663 80.2095 73.4473 81.4965C71.2283 82.7836 69.4988 84.613 68.4774 86.7534C67.4561 88.8938 67.1888 91.2491 67.7094 93.5214C68.23 95.7936 69.5151 97.8809 71.4022 99.5191C73.2892 101.157 75.6935 102.273 78.3109 102.725C80.9284 103.177 83.6414 102.945 86.1069 102.058C88.5724 101.171 90.6797 99.67 92.1623 97.7436C93.6449 95.8173 94.4361 93.5525 94.436 91.2357C94.4318 88.1303 93.009 85.1532 90.4796 82.9573C87.9503 80.7615 84.5209 79.5263 80.9438 79.5227V79.5227ZM80.9438 99.8634C78.9782 99.8635 77.0567 99.3576 75.4222 98.4096C73.7878 97.4617 72.5139 96.1143 71.7616 94.5378C71.0093 92.9613 70.8124 91.2265 71.1958 89.5529C71.5791 87.8793 72.5256 86.3419 73.9155 85.1352C75.3053 83.9286 77.0761 83.1068 79.004 82.7738C80.9318 82.4409 82.9301 82.6117 84.7461 83.2647C86.5621 83.9177 88.1143 85.0235 89.2063 86.4424C90.2984 87.8612 90.8813 89.5293 90.8813 91.2357C90.8775 93.5225 89.8293 95.7148 87.9664 97.3317C86.1035 98.9486 83.578 99.8581 80.9438 99.8609V99.8634Z" fill="#5CAA47"/>
<path d="M143.042 79.5227C140.374 79.5227 137.765 80.2097 135.546 81.4968C133.327 82.784 131.598 84.6134 130.576 86.7538C129.555 88.8943 129.288 91.2495 129.809 93.5217C130.329 95.794 131.614 97.8811 133.502 99.5193C135.389 101.157 137.793 102.273 140.41 102.725C143.028 103.177 145.741 102.945 148.206 102.058C150.672 101.171 152.779 99.67 154.261 97.7436C155.744 95.8172 156.535 93.5524 156.535 91.2357C156.531 88.1302 155.108 85.153 152.578 82.9571C150.049 80.7613 146.619 79.5261 143.042 79.5227V79.5227ZM143.042 99.8634C141.077 99.8634 139.155 99.3574 137.521 98.4093C135.887 97.4613 134.613 96.1139 133.861 94.5374C133.108 92.9609 132.912 91.2261 133.295 89.5525C133.678 87.8789 134.625 86.3416 136.015 85.135C137.405 83.9284 139.176 83.1067 141.103 82.7738C143.031 82.4409 145.029 82.6118 146.845 83.2648C148.661 83.9178 150.213 85.0236 151.306 86.4424C152.398 87.8612 152.98 89.5293 152.98 91.2357C152.977 93.5227 151.929 95.7151 150.065 97.3321C148.202 98.949 145.677 99.8584 143.042 99.8609V99.8634Z" fill="#5CAA47"/>
<path d="M94.207 34.0979H87.4531C86.9817 34.0979 86.5297 33.9353 86.1964 33.646C85.863 33.3566 85.6758 32.9642 85.6758 32.5549C85.6758 32.1457 85.863 31.7532 86.1964 31.4639C86.5297 31.1745 86.9817 31.012 87.4531 31.012H94.207C94.6784 31.012 95.1305 31.1745 95.4638 31.4639C95.7971 31.7532 95.9844 32.1457 95.9844 32.5549C95.9844 32.9642 95.7971 33.3566 95.4638 33.646C95.1305 33.9353 94.6784 34.0979 94.207 34.0979V34.0979Z" fill="#95C347"/>
<path d="M94.207 43.4451H87.4531C86.9817 43.4451 86.5297 43.2825 86.1964 42.9931C85.863 42.7038 85.6758 42.3113 85.6758 41.9021C85.6758 41.4929 85.863 41.1004 86.1964 40.8111C86.5297 40.5217 86.9817 40.3591 87.4531 40.3591H94.207C94.6784 40.3591 95.1305 40.5217 95.4638 40.8111C95.7971 41.1004 95.9844 41.4929 95.9844 41.9021C95.9844 42.3113 95.7971 42.7038 95.4638 42.9931C95.1305 43.2825 94.6784 43.4451 94.207 43.4451V43.4451Z" fill="#95C347"/>
<path d="M94.207 52.7986H87.4531C86.9817 52.7986 86.5297 52.636 86.1964 52.3467C85.863 52.0573 85.6758 51.6648 85.6758 51.2556C85.6758 50.8464 85.863 50.4539 86.1964 50.1646C86.5297 49.8752 86.9817 49.7126 87.4531 49.7126H94.207C94.6784 49.7126 95.1305 49.8752 95.4638 50.1646C95.7971 50.4539 95.9844 50.8464 95.9844 51.2556C95.9844 51.6648 95.7971 52.0573 95.4638 52.3467C95.1305 52.636 94.6784 52.7986 94.207 52.7986V52.7986Z" fill="#95C347"/>
<path d="M94.207 62.146H87.4531C86.9817 62.146 86.5297 61.9834 86.1964 61.6941C85.863 61.4047 85.6758 61.0122 85.6758 60.603C85.6758 60.1938 85.863 59.8013 86.1964 59.512C86.5297 59.2226 86.9817 59.0601 87.4531 59.0601H94.207C94.6784 59.0601 95.1305 59.2226 95.4638 59.512C95.7971 59.8013 95.9844 60.1938 95.9844 60.603C95.9844 61.0122 95.7971 61.4047 95.4638 61.6941C95.1305 61.9834 94.6784 62.146 94.207 62.146V62.146Z" fill="#95C347"/>
<path d="M32.176 137V113.32H41.936C43.8773 113.32 45.488 113.704 46.768 114.472C48.0693 115.24 49.04 116.232 49.68 117.448C50.3413 118.643 50.672 119.891 50.672 121.192C50.672 122.536 50.3413 123.816 49.68 125.032C49.04 126.227 48.0693 127.208 46.768 127.976C45.488 128.744 43.8773 129.128 41.936 129.128H37.104V137H32.176ZM41.936 117.64H37.104V124.84H41.936C42.768 124.84 43.4613 124.669 44.016 124.328C44.5707 123.965 44.9867 123.517 45.264 122.984C45.5627 122.429 45.712 121.843 45.712 121.224C45.712 120.627 45.5627 120.051 45.264 119.496C44.9867 118.941 44.5707 118.493 44.016 118.152C43.4613 117.811 42.768 117.64 41.936 117.64ZM56.4548 117.736C55.6014 117.736 54.9081 117.469 54.3748 116.936C53.8414 116.381 53.5748 115.731 53.5748 114.984C53.5748 114.195 53.8414 113.533 54.3748 113C54.9081 112.445 55.6014 112.168 56.4548 112.168C57.2654 112.168 57.9481 112.445 58.5028 113C59.0574 113.533 59.3348 114.195 59.3348 114.984C59.3348 115.731 59.0574 116.381 58.5028 116.936C57.9481 117.469 57.2654 117.736 56.4548 117.736ZM54.0228 137V120.04H58.8868V137H54.0228Z" fill="#5CAA47"/>
<path d="M69.6995 137V117.608H62.4355V113.32H81.8915V117.608H74.6275V137H69.6995ZM83.3248 137V120.04H88.1568V122.504H88.3168C88.5088 122.056 88.7754 121.619 89.1168 121.192C89.4581 120.765 89.9274 120.413 90.5248 120.136C91.1221 119.859 91.8901 119.72 92.8288 119.72C93.2981 119.72 93.6714 119.752 93.9488 119.816C94.2261 119.859 94.3648 119.88 94.3648 119.88V124.68C94.3648 124.68 94.2048 124.648 93.8848 124.584C93.5861 124.52 93.1914 124.488 92.7008 124.488C91.1861 124.488 90.0554 124.904 89.3088 125.736C88.5621 126.547 88.1888 127.88 88.1888 129.736V137H83.3248ZM103.557 119.72C104.645 119.72 105.541 119.901 106.245 120.264C106.949 120.605 107.482 120.979 107.845 121.384C108.229 121.789 108.463 122.067 108.549 122.216H108.805V120.04H113.669V137H108.805V134.824H108.549C108.463 134.973 108.229 135.251 107.845 135.656C107.482 136.061 106.949 136.445 106.245 136.808C105.541 137.149 104.645 137.32 103.557 137.32C102.298 137.32 101.199 137.075 100.261 136.584C99.3434 136.072 98.5754 135.4 97.9568 134.568C97.3381 133.715 96.8688 132.765 96.5488 131.72C96.2501 130.675 96.1008 129.608 96.1008 128.52C96.1008 127.432 96.2501 126.365 96.5488 125.32C96.8688 124.275 97.3381 123.336 97.9568 122.504C98.5754 121.651 99.3434 120.979 100.261 120.488C101.199 119.976 102.298 119.72 103.557 119.72ZM104.965 123.656C104.09 123.656 103.354 123.901 102.757 124.392C102.181 124.861 101.743 125.469 101.445 126.216C101.167 126.963 101.029 127.731 101.029 128.52C101.029 129.309 101.167 130.077 101.445 130.824C101.743 131.571 102.181 132.189 102.757 132.68C103.354 133.149 104.09 133.384 104.965 133.384C105.839 133.384 106.565 133.149 107.141 132.68C107.738 132.189 108.175 131.571 108.453 130.824C108.751 130.077 108.901 129.309 108.901 128.52C108.901 127.731 108.751 126.963 108.453 126.216C108.175 125.469 107.738 124.861 107.141 124.392C106.565 123.901 105.839 123.656 104.965 123.656ZM124.523 137.32C123.115 137.32 121.953 137.128 121.035 136.744C120.118 136.36 119.382 135.891 118.827 135.336C118.294 134.76 117.889 134.195 117.611 133.64C117.355 133.064 117.185 132.584 117.099 132.2C117.035 131.816 117.003 131.624 117.003 131.624H121.515C121.515 131.624 121.547 131.731 121.611 131.944C121.675 132.157 121.814 132.403 122.027 132.68C122.262 132.957 122.593 133.203 123.019 133.416C123.446 133.629 124.022 133.736 124.747 133.736C125.643 133.736 126.251 133.555 126.571 133.192C126.913 132.829 127.083 132.467 127.083 132.104C127.083 131.336 126.454 130.824 125.195 130.568L122.891 130.12C121.91 129.928 120.982 129.651 120.107 129.288C119.254 128.904 118.561 128.381 118.027 127.72C117.515 127.037 117.259 126.163 117.259 125.096C117.259 124.072 117.526 123.155 118.059 122.344C118.593 121.533 119.35 120.893 120.331 120.424C121.334 119.955 122.529 119.72 123.915 119.72C125.217 119.72 126.294 119.901 127.147 120.264C128.022 120.605 128.715 121.043 129.227 121.576C129.739 122.088 130.123 122.611 130.379 123.144C130.635 123.656 130.795 124.093 130.859 124.456C130.945 124.797 130.987 124.968 130.987 124.968H126.635C126.635 124.968 126.571 124.829 126.443 124.552C126.315 124.253 126.049 123.965 125.643 123.688C125.259 123.389 124.662 123.24 123.851 123.24C123.019 123.24 122.443 123.411 122.123 123.752C121.803 124.072 121.643 124.413 121.643 124.776C121.643 125.203 121.825 125.523 122.187 125.736C122.571 125.949 123.062 126.12 123.659 126.248L125.867 126.696C127.489 127.016 128.822 127.581 129.867 128.392C130.913 129.181 131.435 130.333 131.435 131.848C131.435 132.872 131.169 133.8 130.635 134.632C130.102 135.464 129.323 136.125 128.299 136.616C127.275 137.085 126.017 137.32 124.523 137.32ZM134.707 137V112.68H139.571V122.472H139.731C139.923 122.131 140.201 121.747 140.563 121.32C140.947 120.893 141.449 120.52 142.067 120.2C142.707 119.88 143.518 119.72 144.499 119.72C145.822 119.72 146.899 120.029 147.731 120.648C148.563 121.245 149.171 122.024 149.555 122.984C149.939 123.923 150.131 124.915 150.131 125.96V137H145.267V126.792C145.267 125.981 145.043 125.267 144.595 124.648C144.169 124.029 143.475 123.72 142.515 123.72C141.79 123.72 141.214 123.891 140.787 124.232C140.361 124.573 140.051 125.011 139.859 125.544C139.667 126.077 139.571 126.643 139.571 127.24V137H134.707Z" fill="#FFAE34"/>
</g>
<defs>
<clipPath id="clip0_109_4446">
<rect width="182" height="158" fill="white"/>
</clipPath>
</defs>
</svg>
