<svg width="40" height="40" viewBox="0 0 40 40" fill="none" xmlns="http://www.w3.org/2000/svg">
<g clip-path="url(#clip0_109_4400)">
<circle cx="20" cy="20" r="19.5" fill="#5CAA47" fill-opacity="0.5" stroke="#5CAA47"/>
<path d="M18.5002 12.6667L14.2891 16.8778C13.9974 17.1695 13.8335 17.5652 13.8335 17.9777V28.2223H20.0557V26.6667C21.3444 26.6667 22.3891 25.6221 22.3891 24.3334V12.6667H18.5002Z" fill="#F0915A"/>
<path d="M25.8889 23.1667H17.3334C16.4743 23.1667 15.7778 22.4702 15.7778 21.6111V9.55556C15.7778 8.69645 16.4743 8 17.3334 8H25.8889C26.748 8 27.4445 8.69645 27.4445 9.55556V21.6111C27.4445 22.4702 26.748 23.1667 25.8889 23.1667Z" fill="#5CAA47"/>
<path d="M24.7223 23.1667H17.3334C16.4743 23.1667 15.7778 22.4702 15.7778 21.6111V9.55556C15.7778 8.69645 16.4743 8 17.3334 8H24.7223C25.5814 8 26.2778 8.69645 26.2778 9.55556V21.6111C26.2778 22.4702 25.5814 23.1667 24.7223 23.1667Z" fill="#95C347"/>
<path d="M19.6668 8H17.3335V23.1667H19.6668V8Z" fill="#5CAA47"/>
<path d="M14.2891 19.9887L17.9502 16.3276C18.2539 16.0239 18.7464 16.0239 19.0501 16.3276L19.1836 16.4611C20.0948 17.3723 20.0948 18.8497 19.1836 19.7609L17.7224 21.2222V24.3333C17.7224 25.6219 16.6777 26.6666 15.3891 26.6666H13.8335V21.0887C13.8335 20.6762 13.9974 20.2805 14.2891 19.9887Z" fill="#FAB991"/>
<path d="M17.852 16.426C18.3173 16.8914 18.3173 17.6459 17.852 18.1112C17.7446 18.2186 17.5705 18.2186 17.4631 18.1112L16.8149 17.4631L17.852 16.426Z" fill="#F0915A"/>
<path d="M21.2223 31.3333H12.6667V29.3888C12.6667 28.7445 13.1891 28.2222 13.8334 28.2222H20.0556C20.7 28.2222 21.2223 28.7445 21.2223 29.3888V31.3333Z" fill="#5CAA47"/>
<path d="M17.7224 29.3889H21.2224V31.3334H16.9446V30.1667C16.9446 29.7371 17.2928 29.3889 17.7224 29.3889Z" fill="#467C37"/>
<path d="M23.5556 12.2779C24.4147 12.2779 25.1111 11.5814 25.1111 10.7223C25.1111 9.86319 24.4147 9.16675 23.5556 9.16675C22.6964 9.16675 22 9.86319 22 10.7223C22 11.5814 22.6964 12.2779 23.5556 12.2779Z" fill="#FFAE34"/>
<path d="M23.5556 14.6111C24.4147 14.6111 25.1111 13.9147 25.1111 13.0556C25.1111 12.1964 24.4147 11.5 23.5556 11.5C22.6964 11.5 22 12.1964 22 13.0556C22 13.9147 22.6964 14.6111 23.5556 14.6111Z" fill="#E6E6EB"/>
</g>
<defs>
<clipPath id="clip0_109_4400">
<rect width="40" height="40" fill="white"/>
</clipPath>
</defs>
</svg>
