<svg width="230" height="219" viewBox="0 0 230 219" fill="none" xmlns="http://www.w3.org/2000/svg">
<path opacity="0.1" d="M165.876 90.4098C165.726 86.0614 165.443 81.4242 164.975 76.6254C164.345 67.0392 163.144 58.0883 160.967 52.4579C148.979 50.0036 86.6977 54.5772 86.6515 54.5772L86.2646 52.8448L86.1086 52.1576L85.8315 50.9506L85.7564 50.6735C85.3522 49.045 84.8959 47.4338 84.3647 45.8342C84.3647 45.8342 37.15 41.6186 21.4888 45.7071C21.4888 45.8457 21.4888 45.9786 21.4888 46.1171L21.535 49.9805C21.5812 57.4588 21.4079 64.4752 21.7948 72.1788V72.2365C21.7199 72.2298 21.6445 72.2298 21.5696 72.2365C20.9619 72.3168 20.3882 72.5638 19.9122 72.9501C19.4362 73.3364 19.0765 73.847 18.8728 74.4252C18.7174 74.8736 18.6603 75.3502 18.7053 75.8227L18.9132 78.2538C18.9132 78.2943 18.9132 78.3289 18.9132 78.3693C19.4907 84.5022 20.0682 90.5772 20.0682 90.5772C20.0682 90.5772 20.3685 90.6061 20.8593 90.6292L23.4522 90.814C17.9315 91.3222 11.9026 98.61 12.1683 104.876C12.4339 111.141 6.39346 122.939 7.90068 129.707C9.05564 134.997 14.9979 143.503 17.8911 149.965L17.6658 151.247L4.74765 177.188C5.61387 175.917 13.4098 209.815 49.6178 202.637L75.3791 160.666C78.2524 158.499 80.8819 156.026 83.2213 153.291C84.2086 152.31 85.0298 151.175 85.6524 149.931V149.931C86.5723 148.461 87.2744 146.866 87.7371 145.195C87.8526 144.756 87.9739 144.323 88.101 143.879C90.203 138.525 93.0095 131.22 95.0653 126.161C122.207 125.353 150.705 123.696 165.015 120.329H165.044C166.43 110.916 166.459 100.354 165.876 90.4098ZM26.4897 114.127C26.2657 112.563 26.1307 110.988 26.0855 109.409C26.4031 111.072 26.7496 112.729 27.1134 114.392C26.9055 114.3 26.6976 114.208 26.4897 114.127Z" fill="black"/>
<path d="M1.79669 175.53C1.79669 175.53 13.3925 209.815 49.6177 202.637C49.6177 202.637 57.6562 164.899 64.3896 159.326C68.7323 155.746 78.3242 149.324 80.3742 144.675C82.4243 140.027 90.6591 117.95 92.253 115.293C93.8468 112.637 74.9748 82.0708 74.9748 82.0708L35.2212 102.583L13.1037 141.851C13.1037 141.851 8.85926 167.26 1.79669 175.53Z" fill="white"/>
<path d="M12.7168 144.912C12.7168 144.912 9.88142 166.111 0.508942 177.187" stroke="#263238" stroke-linecap="round" stroke-linejoin="round"/>
<path d="M49.6177 202.637C49.6177 202.637 57.61 166.123 64.3896 159.326C64.3896 159.326 79.7044 150.421 82.4647 139.94C84.3762 132.681 87.8526 124.313 89.5158 120.514" stroke="#263238" stroke-linecap="round" stroke-linejoin="round"/>
<path d="M52.8401 121.686C52.2626 121.316 62.1086 129.193 62.4898 139.957" stroke="#263238" stroke-linecap="round" stroke-linejoin="round"/>
<path d="M159.772 115.085C127.849 122.592 25.0345 121.605 25.0345 121.605C24.1683 119.78 23.123 115.183 22.1124 109.859C20.0913 99.1697 18.2029 85.547 18.2029 85.547L14.8015 85.3102C14.8015 85.3102 14.2241 79.2352 13.6466 73.1023C13.0691 66.9695 16.534 66.9753 16.534 66.9753L16.2857 45.7472L16.2221 40.4459C31.8834 36.3574 79.098 40.5729 79.098 40.5729L80.5706 45.6894L81.3906 49.316L155.701 47.2197C162.515 64.8386 159.772 115.085 159.772 115.085Z" fill="#808080"/>
<path d="M147.426 63.588L98.6867 66.0249C96.6806 66.1252 95.1357 67.8328 95.236 69.8389L95.7312 79.7426C95.8315 81.7487 97.539 83.2937 99.5451 83.1934L148.284 80.7564C150.29 80.6561 151.835 78.9485 151.735 76.9425L151.24 67.0387C151.14 65.0326 149.432 63.4877 147.426 63.588Z" fill="#263238"/>
<path d="M151.468 87.2275L151.624 88.8734L95.5042 91.0447L95.458 89.5663L151.468 87.2275Z" fill="#263238"/>
<path d="M151.745 92.9507L151.797 94.429L95.6832 96.5022L95.6312 95.0296L151.745 92.9507Z" fill="#263238"/>
<path opacity="0.3" d="M155.689 47.22C155.689 47.22 163.97 86.4886 159.772 115.085C159.772 115.085 107.406 121.23 89.4753 120.236L88.7419 110.679L90.2434 110.448C90.2434 110.448 83.0134 55.8996 81.3733 49.3163C81.3733 49.3163 143.735 44.76 155.689 47.22Z" fill="black"/>
<path opacity="0.8" d="M87.0153 110.541L87.6332 117.765C87.6332 117.765 34.8516 120.075 30.2087 118.394C25.5658 116.714 30.457 114.034 42.7342 113.07C55.0114 112.105 87.0153 110.541 87.0153 110.541Z" fill="white"/>
<path d="M55.5022 79.8995C58.1653 79.8995 60.3242 77.9448 60.3242 75.5337C60.3242 73.1226 58.1653 71.168 55.5022 71.168C52.8392 71.168 50.6803 73.1226 50.6803 75.5337C50.6803 77.9448 52.8392 79.8995 55.5022 79.8995Z" fill="#263238"/>
<path d="M18.2029 85.5417C19.2907 97.7575 21.577 109.837 25.0287 121.605C47.4175 121.415 69.8006 121.166 92.1837 120.45C114.567 119.734 137.568 118.221 159.749 115.086C159.749 115.086 163.722 79.9979 155.666 47.2202C146.761 45.3665 81.5985 49.3049 81.5985 49.3049" stroke="#263238" stroke-linecap="round" stroke-linejoin="round"/>
<path d="M87.0153 110.541L87.6332 117.765L37.3925 118.92C35.3194 119.099 32.0912 119.371 30.1856 118.395C29.3193 117.95 28.6957 116.864 29.1057 115.975C29.4753 115.178 30.4454 114.895 31.3117 114.722C37.456 113.457 43.7274 112.926 49.9815 112.464C63.3714 111.471 76.7823 110.799 90.2145 110.448C89.9315 110.448 86.6572 83.4282 86.2934 80.9335C84.8728 71.1741 83.5215 61.3743 81.766 51.6669C81.1324 47.9085 80.2273 44.201 79.0576 40.5735C58.3608 39.0952 36.7457 37.7265 16.1759 40.4465C16.3665 49.6111 16.0258 57.7708 16.4935 66.9758" stroke="#263238" stroke-linecap="round" stroke-linejoin="round"/>
<path d="M24.2606 118.885C24.137 118.511 24.0632 118.123 24.0412 117.73" stroke="#263238" stroke-linecap="round" stroke-linejoin="round"/>
<path d="M24.3761 115.542C25.1442 113.619 27.4483 111.447 33.714 110.754C45.1423 109.484 70.0547 107.197 84.6707 106.643" stroke="#263238" stroke-linecap="round" stroke-linejoin="round" stroke-dasharray="3.91 3.91"/>
<path d="M85.8026 106.602L86.9575 106.562L86.8016 105.407" stroke="#263238" stroke-linecap="round" stroke-linejoin="round"/>
<path d="M86.4782 103.195C83.8507 84.2941 80.9402 65.5318 77.6082 46.7349" stroke="#263238" stroke-linecap="round" stroke-linejoin="round" stroke-dasharray="3.88 3.88"/>
<path d="M77.4234 45.6318L77.2155 44.4768L76.0605 44.396" stroke="#263238" stroke-linecap="round" stroke-linejoin="round"/>
<path d="M73.7275 44.246C64.124 43.605 36.815 42.0054 18.5956 43.2527" stroke="#263238" stroke-linecap="round" stroke-linejoin="round" stroke-dasharray="4.07 4.07"/>
<path d="M17.4175 43.3389L16.2625 43.4313" stroke="#263238" stroke-linecap="round" stroke-linejoin="round"/>
<path d="M14.8015 85.3102L13.4214 70.5845C13.3795 70.1422 13.4272 69.6961 13.5618 69.2727C13.6963 68.8493 13.9149 68.4574 14.2044 68.1205C14.4939 67.7835 14.8484 67.5084 15.2467 67.3116C15.645 67.1149 16.0789 67.0004 16.5224 66.9752C25.0114 66.4844 46.9671 65.3294 55.3925 66.0051C59.4349 66.3285 63.8295 67.6278 65.7871 71.4969C67.4156 74.6846 67.6582 79.4661 64.9267 82.0879C60.7689 86.0725 52.8805 85.7664 47.5215 85.957C37.5426 86.3381 14.8073 85.3968 14.8015 85.3102Z" stroke="#263238" stroke-linecap="round" stroke-linejoin="round"/>
<path d="M67.0056 76.3077C67.0056 75.8977 69.1076 84.7678 61.4272 87.6956C53.7467 90.6234 18.2029 89.6994 18.2029 89.6994V85.5416C18.2029 85.5416 43.3463 86.0729 47.533 85.9574C51.7198 85.8419 66.5552 87.2336 67.0056 76.3077Z" fill="#263238"/>
<path d="M59.6197 125.855C59.6197 125.855 65.9027 129.534 68.253 136.446" stroke="#263238" stroke-linecap="round" stroke-linejoin="round"/>
<path d="M13.5946 69.1871C13.5946 69.1871 44.4089 67.7376 52.251 67.9975C60.0932 68.2574 63.9334 69.984 64.713 74.8984C65.4926 79.8127 60.74 82.8733 56.9517 83.4508C53.1635 84.0283 14.7958 84.1958 14.7958 84.1958" stroke="#263238" stroke-linecap="round" stroke-linejoin="round" stroke-dasharray="4 4"/>
<path d="M34.7708 128.72C34.7708 128.72 30.0008 112.152 21.2231 108.889C21.2231 108.889 19.4907 97.582 23.2327 96.9583C26.9748 96.3346 37.5427 89.3702 34.7823 80.6792C32.022 71.9881 23.7351 85.0391 18.2144 85.5416C12.6937 86.044 6.66486 93.3375 6.91318 99.609C7.16149 105.88 1.13839 117.678 2.64561 124.441C4.15283 131.203 13.4445 143.266 14.1952 149.544" fill="white"/>
<path d="M34.7708 128.72C34.7708 128.72 30.0008 112.152 21.2231 108.889C21.2231 108.889 19.4907 97.582 23.2327 96.9583C26.9748 96.3346 37.5427 89.3702 34.7823 80.6792C32.022 71.9881 23.7351 85.0391 18.2144 85.5416C12.6937 86.044 6.66486 93.3375 6.91318 99.609C7.16149 105.88 1.13839 117.678 2.64561 124.441C4.15283 131.203 13.4445 143.266 14.1952 149.544" stroke="#263238" stroke-linecap="round" stroke-linejoin="round"/>
<path d="M23.2154 82.9947C23.2154 82.9947 29.8276 84.1959 33.4195 79.9976C37.0114 75.7993 32.8766 75.5337 32.8766 75.5337L23.2154 82.9947Z" fill="white" stroke="#263238" stroke-linecap="round" stroke-linejoin="round"/>
<path d="M11.406 92.3501C12.613 92.4331 13.7802 92.8162 14.8015 93.4646" stroke="#263238" stroke-linecap="round" stroke-linejoin="round"/>
<path d="M11.2039 94.7524C12.4062 94.8664 13.5515 95.3189 14.507 96.0575" stroke="#263238" stroke-linecap="round" stroke-linejoin="round"/>
<path d="M29.0537 116.945C29.0537 116.945 57.3502 115.484 64.7997 115.911" stroke="#263238" stroke-linecap="round" stroke-linejoin="round"/>
<path d="M57.9103 113.751C57.9103 113.751 65.0307 113.174 69.4599 113.751" stroke="#263238" stroke-linecap="round" stroke-linejoin="round"/>
<path d="M75.9508 115.83H87.4715" stroke="#263238" stroke-linecap="round" stroke-linejoin="round"/>
<path d="M82.9209 52.55C82.9209 52.55 133.525 48.0283 153.858 50.6096C153.858 50.6096 159.344 60.6982 158.149 112.4C135.296 115.329 112.303 117.039 89.2674 117.522" stroke="#263238" stroke-linecap="round" stroke-linejoin="round" stroke-dasharray="4 4"/>
<g opacity="0.1">
<path d="M219.91 124.1C218.473 117.984 216.365 115.686 214.251 113.919C214.251 113.919 214.205 110.454 211.497 108.479C210.773 107.842 210.001 107.262 209.187 106.746C206.646 104.841 203.845 102.704 203.845 102.704C202.528 98.8926 200.744 94.2785 198.815 89.7395L198.913 90.7732C196.938 85.9513 195.004 81.1524 194.461 79.5586V79.5239C195.038 81.06 195.616 82.5442 196.251 83.9128L189.021 58.3593C188.848 57.3314 188.669 56.3208 188.49 55.3449C188.143 52.4575 187.202 47.0177 184.933 46.6307C184.848 46.625 184.763 46.625 184.678 46.6307C184.678 46.6307 182.005 45.4758 182.005 50.2169C178.823 51.2794 177.593 53.6818 177.287 56.5056C177.121 57.4013 177.102 58.3179 177.229 59.2198C177.287 60.265 177.408 61.3333 177.57 62.3959L167.325 48.9291L166.338 47.6471L153.703 31.0157L136.719 8.60952C136.087 7.77778 135.297 7.07869 134.395 6.5522C133.493 6.0257 132.496 5.68212 131.461 5.54108C130.426 5.40004 129.373 5.46431 128.363 5.7302C127.353 5.9961 126.405 6.45842 125.574 7.09075L104.49 23.1042L96.2607 29.3526C89.9488 32.6384 91.5946 39.1293 93.3444 41.4334L130.112 89.8319C129.921 89.8078 129.728 89.7981 129.535 89.8031C129.535 89.8031 128.484 87.3257 125.885 87.7184C125.332 87.7439 124.796 87.9218 124.338 88.2323C123.919 88.4528 123.563 88.7769 123.304 89.1736C123.016 89.5213 122.757 89.8921 122.53 90.2824C121.208 92.5461 122.432 98.0841 124.343 104.846C124.465 105.285 124.586 105.707 124.702 106.1V106.163L125.192 107.855C127.063 114.346 130.563 127.091 131.21 133.339C131.256 133.917 131.285 134.535 131.296 135.112C131.337 142.307 128.143 154.354 129.518 159.332C129.697 159.984 129.882 160.608 130.066 161.226C131.088 164.552 132.001 167.699 133.606 170.823C135.558 174.635 137.885 178.29 140.062 181.98C144.059 188.76 148.193 195.459 152.467 202.077C154.436 205.114 156.74 207.886 158.969 210.739C159.991 212.05 162.22 214.019 162.607 215.699C162.607 215.699 182.374 217.334 193.439 210.306L192.399 194.575L199.82 151.928C201.939 148.712 208.482 142.429 209.787 140.442C210.463 139.455 211.121 138.473 211.762 137.514C216.642 132.958 219.085 129.43 220.159 125.324C220.182 125.335 220.107 124.868 219.91 124.1ZM151.479 133.414L151.381 133.229C153.4 134.144 155.539 134.766 157.733 135.077C155.429 134.812 152.825 134.442 151.479 133.414ZM159.818 135.326L160.881 135.401C160.525 135.4 160.17 135.374 159.818 135.326V135.326ZM151.271 132.981L149.943 130.348C148.095 125.047 143.92 112.55 143.903 112.498C143.085 108.897 141.992 105.364 140.634 101.93C141.617 102.276 142.67 102.373 143.699 102.212C144.728 102.051 145.701 101.636 146.53 101.006L156.636 93.3315C157.681 93.9609 158.75 94.5268 159.795 95.0235L169.26 102.421L161.753 133.276L151.271 132.981ZM189.581 61.9166C190.367 65.6009 191.608 70.9022 193.254 76.036C191.656 71.4338 190.424 66.7127 189.57 61.9166H189.581Z" fill="black"/>
<path d="M146.68 210.179L146.738 210.456C146.738 210.456 146.721 210.352 146.68 210.179Z" fill="black"/>
</g>
<path d="M181.762 63.049C182.34 62.6679 190.806 58.0596 195.044 71.8787C199.283 85.6978 204.255 109.213 204.255 109.213L194.184 111.17C194.184 111.17 184.852 106.204 176.49 93.7651C176.49 93.7651 164.767 90.7276 159.662 83.5091C155.042 76.949 169.294 52.8623 169.294 52.8623L181.762 63.049Z" fill="white"/>
<path d="M178.141 80.2461C180.636 83.9882 185.36 91.8592 191.735 94.3423" stroke="#263238" stroke-linecap="round" stroke-linejoin="round"/>
<path d="M171.085 84.2715C172.24 84.7392 175.127 86.4024 176.49 86.4659C176.49 86.4659 182.374 98.1137 192.082 101.896" stroke="#263238" stroke-linecap="round" stroke-linejoin="round"/>
<path d="M165.685 88.562C169.294 91.5822 173.597 93.6438 176.49 93.7593C176.49 93.7593 182.374 105.407 192.082 109.19" stroke="#263238" stroke-linecap="round" stroke-linejoin="round"/>
<path d="M135.311 4.15797L103.378 28.4136C100.605 30.5203 100.064 34.4763 102.171 37.2497L146.522 95.6378C148.629 98.4111 152.585 98.9516 155.358 96.845L187.291 72.5893C190.064 70.4827 190.605 66.5267 188.498 63.7533L144.147 5.36523C142.04 2.59185 138.084 2.05134 135.311 4.15797Z" fill="#263238"/>
<path d="M186.382 71.3242L157.081 93.586C156.25 94.2195 155.301 94.6826 154.291 94.9489C153.28 95.2152 152.227 95.2794 151.192 95.1377C150.156 94.9961 149.159 94.6514 148.257 94.1235C147.355 93.5956 146.566 92.8949 145.935 92.0614L103.577 36.3001C102.887 35.3994 102.402 34.3587 102.157 33.251C101.815 31.7635 101.911 30.2089 102.433 28.7746C102.954 27.3402 103.879 26.0872 105.096 25.1663L113.331 18.918L134.409 2.8987C135.241 2.26668 136.189 1.80475 137.199 1.5393C138.21 1.27386 139.262 1.21011 140.298 1.35169C141.333 1.49326 142.33 1.8374 143.232 2.36443C144.134 2.89146 144.923 3.59106 145.554 4.42324L162.55 26.7948L175.185 43.4262L187.889 60.173C188.523 61.004 188.987 61.9517 189.254 62.962C189.522 63.9723 189.587 65.0254 189.447 66.061C189.307 67.0967 188.964 68.0946 188.438 68.9977C187.913 69.9008 187.214 70.6913 186.382 71.3242V71.3242Z" fill="#505050" fill-opacity="0.6"/>
<path opacity="0.1" d="M162.526 26.7948L113.314 18.9122L134.409 2.8987C135.241 2.26668 136.189 1.80475 137.199 1.5393C138.21 1.27386 139.262 1.21011 140.297 1.35169C141.333 1.49326 142.33 1.8374 143.231 2.36443C144.133 2.89146 144.923 3.59106 145.554 4.42324L162.526 26.7948Z" fill="black"/>
<path opacity="0.1" d="M186.382 71.3242L157.081 93.586C156.25 94.2195 155.301 94.6826 154.291 94.9489C153.28 95.2152 152.227 95.2794 151.192 95.1377C150.156 94.9961 149.159 94.6514 148.257 94.1235C147.355 93.5956 146.566 92.8949 145.935 92.0614L103.577 36.3001C102.887 35.3994 102.402 34.3587 102.157 33.251L176.155 44.7601L187.889 60.2077C189.159 61.8835 189.712 63.9938 189.43 66.077C189.148 68.1602 188.052 70.0468 186.382 71.3242V71.3242Z" fill="black"/>
<path d="M138.568 8.56022L133.394 12.4899C132.358 13.277 132.156 14.755 132.943 15.7913L139.206 24.0365C139.993 25.0727 141.471 25.2747 142.508 24.4876L147.681 20.5579C148.717 19.7708 148.919 18.2927 148.132 17.2565L141.869 9.01127C141.082 7.97506 139.604 7.77312 138.568 8.56022Z" fill="white" stroke="#263238" stroke-linecap="round" stroke-linejoin="round"/>
<path d="M136.089 10.4346L145.023 22.5732" stroke="#263238" stroke-linecap="round" stroke-linejoin="round"/>
<path d="M136.089 19.9345L145.023 13.1606" stroke="#263238" stroke-linecap="round" stroke-linejoin="round"/>
<path d="M153.391 89.954L151.866 91.0743L133.266 66.5892L134.779 65.4458L153.391 89.954Z" fill="#263238"/>
<path d="M155.972 88.0424L154.447 89.1743L135.824 64.6488L137.325 63.5054L155.972 88.0424Z" fill="#263238"/>
<path d="M158.548 86.1424L157.029 87.2628L138.376 62.7141L139.883 61.5649L158.548 86.1424Z" fill="#263238"/>
<path d="M161.129 84.2307L159.604 85.351L141.2 61.1257L142.702 59.9766L161.129 84.2307Z" fill="#263238"/>
<path d="M163.912 82.175L162.388 83.3011L143.955 59.0354L145.462 57.8862L163.912 82.175Z" fill="#263238"/>
<path d="M163.912 53.6242L162.388 54.7445L143.955 30.4789L145.462 29.3354L163.912 53.6242Z" fill="#263238"/>
<path d="M123.768 11.0455L121.409 12.8374L173.35 81.2182L175.709 79.4263L123.768 11.0455Z" fill="#263238"/>
<path d="M186.382 71.3242L157.081 93.586C156.25 94.2195 155.301 94.6826 154.291 94.9489C153.28 95.2152 152.227 95.2794 151.192 95.1377C150.156 94.9961 149.159 94.6514 148.257 94.1235C147.355 93.5956 146.566 92.8949 145.935 92.0614L103.577 36.3001C102.887 35.3994 102.402 34.3587 102.157 33.251C101.815 31.7635 101.911 30.2089 102.433 28.7746C102.954 27.3402 103.879 26.0872 105.096 25.1663L113.331 18.918L134.409 2.8987C135.241 2.26668 136.189 1.80475 137.199 1.5393C138.21 1.27386 139.262 1.21011 140.298 1.35169C141.333 1.49326 142.33 1.8374 143.232 2.36443C144.134 2.89146 144.923 3.59106 145.554 4.42324L162.55 26.7948L175.185 43.4262L187.889 60.173C188.523 61.004 188.987 61.9517 189.254 62.962C189.522 63.9723 189.587 65.0254 189.447 66.061C189.307 67.0967 188.964 68.0946 188.438 68.9977C187.913 69.9008 187.214 70.6913 186.382 71.3242V71.3242Z" stroke="#263238" stroke-linecap="round" stroke-linejoin="round"/>
<path d="M162.63 215.694C162.63 215.694 196.736 227.821 207.056 201.407C207.056 201.407 190.915 181.773 199.728 165.73C205.271 155.624 220.603 133.316 220.603 133.316C220.603 133.316 227.008 127.236 229 121.126C229 121.126 227.903 114.317 223.075 109.709C223.075 109.709 223.023 106.244 220.315 104.269C217.606 102.294 212.64 98.4944 212.64 98.4944C212.64 98.4944 204.474 78.9063 203.262 75.3664C202.049 71.8265 199.612 65.1335 198.394 57.7417C197.175 50.35 196.049 42.3924 193.462 42.4155C193.462 42.4155 190.794 41.2605 190.794 46.0016C190.794 46.0016 185.192 48.889 186.018 54.9987C186.844 61.1084 187.606 64.2673 187.387 67.7033C187.167 71.1393 188.27 83.07 191.031 86.812C191.031 86.812 191.955 103.559 193.341 107.919C193.387 108.052 193.427 108.173 193.468 108.283C194.923 111.973 180.382 126.185 172.511 130.031C172.511 130.031 171.685 131.567 168.63 131.145C165.575 130.724 160.407 130.527 159.518 128.258C158.628 125.988 152.709 108.283 152.709 108.283C152.709 108.283 147.922 85.5878 138.359 85.5936C138.359 85.5936 136.909 82.1287 133.162 84.0228C129.414 85.9169 131.868 96.2423 133.525 101.89C135.183 107.538 139.381 122.385 140.062 129.216C140.744 136.048 136.875 149.734 138.33 155.116C139.785 160.498 141.402 164.131 146.045 172.943C150.688 181.755 160.973 208.031 162.63 215.694Z" fill="white"/>
<path d="M162.63 215.694C162.63 215.694 155.331 188.217 144.601 170.448C133.872 152.679 140.184 146.396 140.184 131.607C140.184 116.818 128.132 91.6397 131.383 86.0902C134.634 80.5406 139.069 84.9814 140.923 90.1614C142.777 95.3414 140.184 98.3038 134.986 98.6734" stroke="#263238" stroke-linecap="round" stroke-linejoin="round"/>
<path d="M138.359 85.6172C138.359 85.6172 144.59 85.236 148.419 95.1975C152.247 105.159 158.38 130.424 164.767 138.11" stroke="#263238" stroke-linecap="round" stroke-linejoin="round"/>
<path d="M159.726 128.777C159.76 128.858 168.648 133.813 182.438 129.47" stroke="#263238" stroke-linecap="round" stroke-linejoin="round"/>
<path d="M139.543 114.855C140.236 114.007 141.139 113.356 142.163 112.968C143.187 112.58 144.294 112.468 145.375 112.643" stroke="#263238" stroke-linecap="round" stroke-linejoin="round"/>
<path d="M140.727 117.99C141.325 117.274 142.114 116.741 143.001 116.452C143.888 116.163 144.839 116.13 145.745 116.356" stroke="#263238" stroke-linecap="round" stroke-linejoin="round"/>
<path d="M190.794 45.9844C181.728 49.0046 188.484 62.6966 187.387 67.6918C186.29 72.687 189.119 82.25 191.296 87.4358C191.296 93.5167 193.462 108.271 193.462 108.271C192.122 112.966 180.942 126.803 170.08 131.134" stroke="#263238" stroke-linecap="round" stroke-linejoin="round"/>
<path d="M197.447 52.8797C197.447 52.8797 196.771 42.3984 193.462 42.3984C190.153 42.3984 190.355 49.461 191.73 54.7045C193.104 59.948 198.451 59.1973 197.447 52.8797Z" stroke="#263238" stroke-linecap="round" stroke-linejoin="round"/>
<path d="M197.447 52.8794C197.447 52.8794 200.265 69.3549 205.04 79.7033" stroke="#263238" stroke-linecap="round" stroke-linejoin="round"/>
<path d="M210.671 118.291C212.981 114.549 214.003 111.009 214.858 106.504C214.644 103.681 211.393 94.464 207.616 85.5361" stroke="#263238" stroke-linecap="round" stroke-linejoin="round"/>
<path d="M212.946 99.3667C216.694 102.185 223.214 104.35 222.463 109.213C221.635 114.077 219.932 118.751 217.439 123.009" stroke="#263238" stroke-linecap="round" stroke-linejoin="round"/>
<path d="M207.887 202.637C207.887 202.637 194.831 184.51 197.447 171.99C199.37 162.779 211.733 146.673 220.603 133.334C225.489 128.777 227.932 125.249 229 121.143C227.435 113.434 224.894 111.187 222.451 109.212" stroke="#263238" stroke-linecap="round" stroke-linejoin="round"/>
<path d="M211.37 102.358C209.915 101.949 208.392 101.843 206.895 102.047C205.398 102.251 203.959 102.759 202.667 103.542" stroke="#263238" stroke-linecap="round" stroke-linejoin="round"/>
<path d="M210.636 105.459C208.862 105.19 207.05 105.509 205.474 106.366" stroke="#263238" stroke-linecap="round" stroke-linejoin="round"/>
</svg>
