<svg width="251" height="231" viewBox="0 0 251 231" fill="none" xmlns="http://www.w3.org/2000/svg">
<path d="M124.775 230.751C193.509 230.751 249.229 227.028 249.229 222.436C249.229 217.844 193.509 214.122 124.775 214.122C56.041 214.122 0.320976 217.844 0.320976 222.436C0.320976 227.028 56.041 230.751 124.775 230.751Z" fill="#5CAA47"/>
<path opacity="0.5" d="M124.775 230.751C193.509 230.751 249.229 227.028 249.229 222.436C249.229 217.844 193.509 214.122 124.775 214.122C56.041 214.122 0.320976 217.844 0.320976 222.436C0.320976 227.028 56.041 230.751 124.775 230.751Z" fill="white"/>
<path d="M96.0556 0.825134H84.1427V3.42446V18.6902V21.2895H109.408V3.42446H96.9023L96.0556 0.825134Z" fill="#5CAA47"/>
<path d="M96.0556 39.7726H84.1427V42.3719V57.6376V60.237H109.408V42.3719H96.9023L96.0556 39.7726Z" fill="#5CAA47"/>
<path d="M96.0556 78.7201H84.1427V81.3194V96.5851V99.1845H109.408V81.3194H96.9023L96.0556 78.7201Z" fill="#5CAA47"/>
<path d="M96.0556 117.668H84.1427V120.267V135.533V138.132H109.408V120.267H96.9023L96.0556 117.668Z" fill="#5CAA47"/>
<path d="M96.0556 156.615H84.1427V159.214V174.48V177.079H109.408V159.214H96.9023L96.0556 156.615Z" fill="#5CAA47"/>
<path d="M172.393 0.825134H160.488V3.42446V18.6902V21.2895H185.745V3.42446H173.239L172.393 0.825134Z" fill="#5CAA47"/>
<path d="M221.924 3.42446L221.077 0.825134H209.173V3.42446V18.6902V21.2895H234.429V3.42446H221.924Z" fill="#5CAA47"/>
<path d="M172.393 39.7726H160.488V42.3719V57.6376V60.237H185.745V42.3719H173.239L172.393 39.7726Z" fill="#5CAA47"/>
<path d="M221.077 78.7201H209.173V81.3194V96.5851V99.1845H234.429V81.3194H221.924L221.077 78.7201Z" fill="#5CAA47"/>
<path d="M221.077 39.7726H209.173V42.3719V57.6376V60.237H234.429V42.3719H221.924L221.077 39.7726Z" fill="#5CAA47"/>
<path d="M172.393 78.7201H160.488V81.3194V96.5851V99.1845H185.745V81.3194H173.239L172.393 78.7201Z" fill="#5CAA47"/>
<path d="M172.393 117.668H160.488V120.267V135.533V138.132H185.745V120.267H173.239L172.393 117.668Z" fill="#5CAA47"/>
<path d="M221.077 117.668H209.173V120.267V135.533V138.132H234.429V120.267H221.924L221.077 117.668Z" fill="#5CAA47"/>
<path d="M172.393 156.615H160.488V159.214V174.48V177.079H185.745V159.214H173.239L172.393 156.615Z" fill="#5CAA47"/>
<path d="M221.077 156.615H209.173V159.214V174.48V177.079H234.429V159.214H221.924L221.077 156.615Z" fill="#5CAA47"/>
<g opacity="0.5">
<path d="M96.0556 0.825134H84.1427V3.42446V18.6902V21.2895H109.408V3.42446H96.9023L96.0556 0.825134Z" fill="white"/>
<path d="M96.0556 39.7726H84.1427V42.3719V57.6376V60.237H109.408V42.3719H96.9023L96.0556 39.7726Z" fill="white"/>
<path d="M96.0556 78.7201H84.1427V81.3194V96.5851V99.1845H109.408V81.3194H96.9023L96.0556 78.7201Z" fill="white"/>
<path d="M96.0556 117.668H84.1427V120.267V135.533V138.132H109.408V120.267H96.9023L96.0556 117.668Z" fill="white"/>
<path d="M96.0556 156.615H84.1427V159.214V174.48V177.079H109.408V159.214H96.9023L96.0556 156.615Z" fill="white"/>
<path d="M172.393 0.825134H160.488V3.42446V18.6902V21.2895H185.745V3.42446H173.239L172.393 0.825134Z" fill="white"/>
<path d="M221.924 3.42446L221.077 0.825134H209.173V3.42446V18.6902V21.2895H234.429V3.42446H221.924Z" fill="white"/>
<path d="M172.393 39.7726H160.488V42.3719V57.6376V60.237H185.745V42.3719H173.239L172.393 39.7726Z" fill="white"/>
<path d="M221.077 78.7201H209.173V81.3194V96.5851V99.1845H234.429V81.3194H221.924L221.077 78.7201Z" fill="white"/>
<path d="M221.077 39.7726H209.173V42.3719V57.6376V60.237H234.429V42.3719H221.924L221.077 39.7726Z" fill="white"/>
<path d="M172.393 78.7201H160.488V81.3194V96.5851V99.1845H185.745V81.3194H173.239L172.393 78.7201Z" fill="white"/>
<path d="M172.393 117.668H160.488V120.267V135.533V138.132H185.745V120.267H173.239L172.393 117.668Z" fill="white"/>
<path d="M221.077 117.668H209.173V120.267V135.533V138.132H234.429V120.267H221.924L221.077 117.668Z" fill="white"/>
<path d="M172.393 156.615H160.488V159.214V174.48V177.079H185.745V159.214H173.239L172.393 156.615Z" fill="white"/>
<path d="M221.077 156.615H209.173V159.214V174.48V177.079H234.429V159.214H221.924L221.077 156.615Z" fill="white"/>
</g>
<path d="M29.1929 59.0432C29.1929 59.0432 28.4309 64.2672 30.954 67.8402C33.4771 71.4132 51.8841 86.3826 53.5266 87.2462C55.1692 88.1098 62.2305 86.2641 60.0969 80.5574C57.9632 74.8508 42.4605 62.777 39.3531 59.5088C36.2458 56.2406 33.3501 56.7148 33.3501 56.7148" fill="#5CAA47"/>
<path d="M29.1929 59.0432C29.1929 59.0432 28.4309 64.2672 30.954 67.8402C33.4771 71.4132 51.8841 86.3826 53.5266 87.2462C55.1692 88.1098 62.2305 86.2641 60.0969 80.5574C57.9632 74.8508 42.4605 62.777 39.3531 59.5088C36.2458 56.2406 33.3501 56.7148 33.3501 56.7148" stroke="#263238" stroke-miterlimit="10"/>
<path d="M57.3452 78.0935C57.3452 78.0935 60.8758 78.3391 67.4292 78.0935C73.9825 77.848 90.3743 78.8471 92.8974 78.8471H95.4375L95.1919 84.6469C95.1919 84.6469 82.8304 85.6544 74.2619 86.916C65.6935 88.1775 58.6321 89.6931 51.5708 86.1624" fill="#5CAA47"/>
<path d="M57.3452 78.0935C57.3452 78.0935 60.8758 78.3391 67.4292 78.0935C73.9825 77.848 90.3743 78.8471 92.8974 78.8471H95.4375L95.1919 84.6469C95.1919 84.6469 82.8304 85.6544 74.2619 86.916C65.6935 88.1775 58.6321 89.6931 51.5708 86.1624" stroke="#263238" stroke-linecap="round" stroke-linejoin="round"/>
<path d="M95.4121 78.8471L95.8524 77.8226C96.5492 76.1952 97.7321 74.823 99.2391 73.894V73.894C100.567 73.5055 101.835 72.9357 103.007 72.2006L103.219 72.0736C103.219 72.0736 104.793 72.5308 103.87 73.767C103.638 74.1265 103.316 74.4189 102.936 74.6151C102.556 74.8112 102.13 74.9041 101.703 74.8846L100.441 76.8997L109.12 77.6025C109.12 77.6025 110.373 78.102 109.365 78.8555C108.358 79.6091 103.439 79.4228 103.439 79.4228L109.696 80.5235C109.696 80.5235 110.407 81.2347 110.102 81.8359C109.797 82.437 103.235 81.6327 103.235 81.6327L108.79 83.1482C109.016 83.32 109.178 83.5626 109.25 83.8373C109.322 84.1121 109.3 84.4031 109.188 84.6638C108.993 85.1718 107.782 84.9686 107.274 84.7654C106.766 84.5622 103.134 83.961 103.134 83.961L107.173 86.1794C107.133 86.4193 107.035 86.6458 106.887 86.8392C106.739 87.0325 106.547 87.1868 106.326 87.2885C105.73 87.4547 105.101 87.4547 104.505 87.2885L99.256 85.1718C99.256 85.1718 98.9766 85.8746 95.0819 84.7146L95.4121 78.8471Z" fill="#FFC0BB"/>
<path d="M95.4121 78.8471L95.8524 77.8226C96.5492 76.1952 97.7321 74.823 99.2391 73.894V73.894C100.567 73.5055 101.835 72.9357 103.007 72.2006L103.219 72.0736C103.219 72.0736 104.793 72.5308 103.87 73.767C103.638 74.1265 103.316 74.4189 102.936 74.6151C102.556 74.8112 102.13 74.9041 101.703 74.8846L100.441 76.8997L109.12 77.6025C109.12 77.6025 110.373 78.102 109.365 78.8555C108.358 79.6091 103.439 79.4228 103.439 79.4228L109.696 80.5235C109.696 80.5235 110.407 81.2347 110.102 81.8359C109.797 82.437 103.235 81.6327 103.235 81.6327L108.79 83.1482C109.016 83.32 109.178 83.5626 109.25 83.8373C109.322 84.1121 109.3 84.4031 109.188 84.6638C108.993 85.1718 107.782 84.9686 107.274 84.7654C106.766 84.5622 103.134 83.961 103.134 83.961L107.173 86.1794C107.133 86.4193 107.035 86.6458 106.887 86.8392C106.739 87.0325 106.547 87.1868 106.326 87.2885C105.73 87.4547 105.101 87.4547 104.505 87.2885L99.256 85.1718C99.256 85.1718 98.9766 85.8746 95.0819 84.7146L95.4121 78.8471Z" fill="#FFC0BB" fill-opacity="0.2"/>
<path d="M95.4121 78.8471L95.8524 77.8226C96.5492 76.1952 97.7321 74.823 99.2391 73.894V73.894C100.567 73.5055 101.835 72.9357 103.007 72.2006L103.219 72.0736C103.219 72.0736 104.793 72.5308 103.87 73.767C103.638 74.1265 103.316 74.4189 102.936 74.6151C102.556 74.8112 102.13 74.9041 101.703 74.8846L100.441 76.8997L109.12 77.6025C109.12 77.6025 110.373 78.102 109.365 78.8555C108.358 79.6091 103.439 79.4228 103.439 79.4228L109.696 80.5235C109.696 80.5235 110.407 81.2347 110.102 81.8359C109.797 82.437 103.235 81.6327 103.235 81.6327L108.79 83.1482C109.016 83.32 109.178 83.5626 109.25 83.8373C109.322 84.1121 109.3 84.4031 109.188 84.6638C108.993 85.1718 107.782 84.9686 107.274 84.7654C106.766 84.5622 103.134 83.961 103.134 83.961L107.173 86.1794C107.133 86.4193 107.035 86.6458 106.887 86.8392C106.739 87.0325 106.547 87.1868 106.326 87.2885C105.73 87.4547 105.101 87.4547 104.505 87.2885L99.256 85.1718C99.256 85.1718 98.9766 85.8746 95.0819 84.7146L95.4121 78.8471Z" stroke="#263238" stroke-linecap="round" stroke-linejoin="round"/>
<path d="M100.458 76.832C100.458 76.832 100.958 80.5574 99.0359 81.2686Z" fill="#FFC0BB"/>
<path d="M100.458 76.832C100.458 76.832 100.958 80.5574 99.0359 81.2686" stroke="#263238" stroke-linecap="round" stroke-linejoin="round"/>
<path d="M216.759 61.3292C216.759 61.3292 216.437 66.5956 213.237 69.5844C210.036 72.5732 188.971 83.4615 187.184 83.978C185.398 84.4945 178.861 81.2432 182.104 76.0954C185.347 70.9475 203 62.2944 206.709 59.712C210.417 57.1296 213.152 58.1965 213.152 58.1965" fill="#5CAA47"/>
<path d="M216.759 61.3292C216.759 61.3292 216.437 66.5956 213.237 69.5844C210.036 72.5732 188.971 83.4615 187.184 83.978C185.398 84.4945 178.861 81.2432 182.104 76.0954C185.347 70.9475 203 62.2944 206.709 59.712C210.417 57.1296 213.152 58.1965 213.152 58.1965" stroke="#263238" stroke-miterlimit="10"/>
<path d="M185.279 74.2411C185.279 74.2411 181.774 73.767 175.407 72.1837C169.04 70.6004 152.792 68.2466 150.32 67.7301L147.856 67.2136L146.916 72.9457C146.916 72.9457 158.769 76.4509 166.94 79.4397C175.11 82.4285 181.681 85.3665 189.309 83.326" fill="#5CAA47"/>
<path d="M185.279 74.2411C185.279 74.2411 181.774 73.767 175.407 72.1837C169.04 70.6004 152.792 68.2466 150.32 67.7301L147.856 67.2136L146.916 72.9457C146.916 72.9457 158.769 76.4509 166.94 79.4397C175.11 82.4285 181.681 85.3665 189.309 83.326" stroke="#263238" stroke-linecap="round" stroke-linejoin="round"/>
<path d="M147.856 67.2052L147.636 66.113C147.278 64.3742 146.391 62.7888 145.096 61.5747V61.5747C143.875 60.9116 142.75 60.0855 141.751 59.1193L141.582 58.95C141.582 58.95 139.939 59.077 140.608 60.4402C140.76 60.8394 141.014 61.1915 141.346 61.4606C141.677 61.7298 142.074 61.9064 142.496 61.9727L143.343 64.2079L134.707 63.1242C134.707 63.1242 133.369 63.3612 134.207 64.301C135.045 65.2409 139.871 66.0537 139.871 66.0537L133.521 65.8674C133.521 65.8674 132.675 66.4093 132.852 67.0697C133.03 67.7301 139.626 68.272 139.626 68.272L133.885 68.6191C133.629 68.74 133.419 68.9429 133.291 69.1959C133.162 69.4488 133.121 69.7374 133.174 70.0162C133.276 70.558 134.504 70.6004 135.037 70.5072C135.57 70.4141 139.27 70.5665 139.27 70.5665L134.859 71.9127C134.847 72.1516 134.893 72.3899 134.991 72.6078C135.09 72.8257 135.239 73.017 135.426 73.1658C135.974 73.4496 136.589 73.5784 137.204 73.5384L142.776 72.5308C142.776 72.5308 142.911 73.2759 146.958 72.9372L147.856 67.2052Z" fill="#FFC0BB" stroke="#263238" stroke-linecap="round" stroke-linejoin="round"/>
<path d="M143.326 64.2079C143.326 64.2079 142.081 67.7555 143.809 68.8392Z" fill="#FFC0BB"/>
<path d="M143.326 64.2079C143.326 64.2079 142.081 67.7555 143.809 68.8392" stroke="#263238" stroke-linecap="round" stroke-linejoin="round"/>
<path d="M149.287 100.802H101.195V36.3943H134.969L149.287 49.5095V100.802Z" fill="white" stroke="#263238" stroke-linecap="round" stroke-linejoin="round"/>
<path d="M134.969 36.3943V49.5095H149.287L134.969 36.3943Z" fill="#263238" stroke="#263238" stroke-linecap="round" stroke-linejoin="round"/>
<path d="M154.232 101.41C159.162 96.1936 158.929 87.9678 153.712 83.0379C148.496 78.1079 140.27 78.3405 135.34 83.5575C130.41 88.7744 130.643 97.0001 135.859 101.93C141.076 106.86 149.302 106.627 154.232 101.41Z" fill="#263238"/>
<path d="M151.784 90.9801H146.281V85.4851H143.284V90.9801H137.789V93.9858H143.284V99.4808H146.281V93.9858H151.784V90.9801Z" fill="white"/>
<path d="M172.841 173.794H80.3072L69.639 102.478H172.841V173.794Z" fill="#263238" stroke="#263238" stroke-linecap="round" stroke-linejoin="round"/>
<path d="M124.623 102.478L123.234 98.4817C122.862 97.411 122.165 96.4828 121.241 95.8259C120.317 95.1689 119.212 94.8158 118.078 94.8156H80.6374V173.794H173.18L183.84 102.478H124.623Z" fill="#5CAA47" stroke="#263238" stroke-linecap="round" stroke-linejoin="round"/>
<path d="M23.4947 208.17C23.4947 208.17 25.5522 212.784 27.6011 214.325C29.6501 215.866 33.5279 215.612 34.019 218.177C34.5101 220.743 32.478 220.997 30.6831 220.997C28.8881 220.997 23.2407 220.997 22.2162 220.743C18.9806 219.607 15.9477 217.961 13.2329 215.866C10.1594 213.326 9.38896 213.555 11.7004 208.678C14.0119 203.801 23.4947 208.17 23.4947 208.17Z" fill="#5CAA47" stroke="#263238" stroke-miterlimit="10"/>
<path d="M34.0867 218.669C31.5975 219.109 26.7206 219.71 22.4279 218.669C18.1352 217.627 13.0636 213.766 10.4981 211.65C9.96471 213.648 10.9723 214.012 13.2329 215.883C15.9506 217.963 18.9833 219.595 22.2162 220.718C23.2407 220.972 28.8881 220.972 30.6831 220.972C32.478 220.972 34.2476 220.768 34.0867 218.669Z" fill="white" stroke="#263238" stroke-miterlimit="10"/>
<path d="M31.1911 124.365C31.1911 124.365 27.6689 153.914 24.8494 161.357C22.03 168.799 17.7796 173.506 16.7551 179.137C15.7306 184.767 11.675 208.669 11.675 208.669C11.675 208.669 14.2151 211.209 16.0354 210.981C17.8558 210.752 23.2153 211.497 24.7563 208.669C26.2972 205.841 26.6783 201.269 26.9323 200.499C27.1863 199.728 37.9392 178.925 40.5385 170.712C43.1378 162.5 51.3676 128.581 51.1136 124.475" fill="#263238"/>
<path d="M31.1911 124.365C31.1911 124.365 27.6689 153.914 24.8494 161.357C22.03 168.799 17.7796 173.506 16.7551 179.137C15.7306 184.767 11.675 208.669 11.675 208.669C11.675 208.669 14.2151 211.209 16.0354 210.981C17.8558 210.752 23.2153 211.497 24.7563 208.669C26.2972 205.841 26.6783 201.269 26.9323 200.499C27.1863 199.728 37.9392 178.925 40.5385 170.712C43.1378 162.5 51.3676 128.581 51.1136 124.475" stroke="#263238" stroke-miterlimit="10"/>
<path d="M29.3114 104.095C29.3114 104.095 26.1702 113.333 27.3471 121.588C28.524 129.843 37.7698 133.975 44.2808 132.789C50.7918 131.604 52.536 127.091 52.536 119.242C52.5147 114.385 52.1782 109.535 51.5284 104.722C44.2666 107.043 36.4309 106.822 29.3114 104.095Z" fill="#263238" stroke="#263238" stroke-miterlimit="10"/>
<path d="M31.479 43.9468C31.479 43.9468 25.5522 54.9537 25.1881 63.7931C24.824 72.6324 29.3115 104.095 29.3115 104.095C29.3115 104.095 31.081 107.634 39.5394 108.024C47.9978 108.413 51.5285 105.484 51.5285 105.484C51.5285 105.484 54.4749 85.4343 54.4749 74.8169C54.4749 64.1995 46.2197 48.4765 46.2197 48.4765L31.479 43.9468Z" fill="#5CAA47" stroke="#263238" stroke-miterlimit="10"/>
<path d="M26.9238 68.4244C26.9238 68.4244 27.4403 74.6475 34.9673 75.4264" stroke="#263238" stroke-linecap="round" stroke-linejoin="round"/>
<path d="M28.9982 76.7219C31.7415 78.34 34.9834 78.8944 38.1085 78.2798" stroke="#263238" stroke-linecap="round" stroke-linejoin="round"/>
<path d="M31.8515 104.468C31.8515 104.468 39.3701 97.9906 43.2648 92.0215" stroke="#263238" stroke-linecap="round" stroke-linejoin="round"/>
<path d="M42.4858 98.2446C42.4858 98.2446 36.0002 105.018 33.6634 105.772" stroke="#263238" stroke-linecap="round" stroke-linejoin="round"/>
<path d="M35.7971 29.3669C35.7971 29.3669 35.6023 34.8703 35.0181 38.6042C34.4339 42.3381 34.2307 43.9129 34.2307 43.9129L45.0428 48.0362C45.0428 48.0362 44.0522 40.5685 45.4323 37.4188C46.2101 35.7373 46.7405 33.952 47.0071 32.1186C47.0071 32.1186 43.468 23.4655 39.7341 22.8728C36.0003 22.2801 35.7971 29.3669 35.7971 29.3669Z" fill="#FFC0BB"/>
<path d="M35.7971 29.3669C35.7971 29.3669 35.6023 34.8703 35.0181 38.6042C34.4339 42.3381 34.2307 43.9129 34.2307 43.9129L45.0428 48.0362C45.0428 48.0362 44.0522 40.5685 45.4323 37.4188C46.2101 35.7373 46.7405 33.952 47.0071 32.1186C47.0071 32.1186 43.468 23.4655 39.7341 22.8728C36.0003 22.2801 35.7971 29.3669 35.7971 29.3669Z" fill="#FFC0BB" fill-opacity="0.2"/>
<path d="M35.7971 29.3669C35.7971 29.3669 35.6023 34.8703 35.0181 38.6042C34.4339 42.3381 34.2307 43.9129 34.2307 43.9129L45.0428 48.0362C45.0428 48.0362 44.0522 40.5685 45.4323 37.4188C46.2101 35.7373 46.7405 33.952 47.0071 32.1186C47.0071 32.1186 43.468 23.4655 39.7341 22.8728C36.0003 22.2801 35.7971 29.3669 35.7971 29.3669Z" stroke="#263238" stroke-miterlimit="10"/>
<path d="M50.5463 13.4746C50.5463 13.4746 52.5106 11.705 49.9536 5.85444C47.3966 0.00385203 35.0181 0.351001 29.1167 5.65124C23.2153 10.9515 21.251 20.4005 26.365 26.4881C31.479 32.5758 37.5666 33.3717 41.5037 31.0094C45.4408 28.6472 45.8218 24.1344 45.8218 22.3648C45.8218 20.5952 44.4502 16.2687 46.4145 15.0918C47.695 14.3323 49.0905 13.7861 50.5463 13.4746V13.4746Z" fill="#263238" stroke="#263238" stroke-miterlimit="10"/>
<path d="M30.2936 44.3363L47.7946 51.4145L46.8124 45.7164L31.2757 39.2223L30.2936 44.3363Z" fill="white" stroke="#263238" stroke-miterlimit="10"/>
<path d="M52.7477 215.095C52.7477 215.095 57.8786 218.177 60.698 219.456C63.5175 220.734 63.78 220.48 63.78 222.275C63.78 224.07 64.034 224.333 59.4111 224.333C54.7882 224.333 41.4529 224.587 40.1744 223.562C38.8959 222.538 50.9527 214.325 52.7477 215.095Z" fill="#5CAA47" stroke="#263238" stroke-miterlimit="10"/>
<path d="M59.4111 224.333C63.7376 224.333 63.7884 224.104 63.78 222.639C50.631 223.037 44.2216 222.538 41.1058 221.962C40.2591 222.75 39.8781 223.359 40.1744 223.596C41.4952 224.587 54.7966 224.333 59.4111 224.333Z" fill="white" stroke="#263238" stroke-miterlimit="10"/>
<path d="M49.9621 12.0945C49.9621 12.0945 40.7247 16.421 40.7247 18.0213C40.7247 19.6215 44.6534 20.1803 43.4765 22.1531C42.917 23.1311 42.2527 24.0453 41.4952 24.8794C41.4952 24.8794 43.0616 27.6311 41.69 28.0206C40.3183 28.4101 39.7257 28.4101 38.3032 26.4458C36.8808 24.4815 35.5515 23.4993 35.162 26.8437C34.7726 30.1881 36.3389 30.7723 37.5158 30.9671C38.4298 31.0758 39.3535 31.0758 40.2675 30.9671C40.2675 30.9671 42.2403 35.6831 43.6119 36.2758C44.9836 36.8685 51.6724 37.6559 53.044 36.081C54.4156 34.5062 53.4419 27.4279 53.4419 27.4279C53.4419 27.4279 55.4062 27.0385 55.4062 25.2689C55.4062 23.4993 52.2651 20.9423 52.2651 20.9423C52.2651 20.9423 53.044 19.7654 52.4598 17.0137C52.0169 15.2036 51.1621 13.5202 49.9621 12.0945V12.0945Z" fill="#FFC0BB"/>
<path d="M49.9621 12.0945C49.9621 12.0945 40.7247 16.421 40.7247 18.0213C40.7247 19.6215 44.6534 20.1803 43.4765 22.1531C42.917 23.1311 42.2527 24.0453 41.4952 24.8794C41.4952 24.8794 43.0616 27.6311 41.69 28.0206C40.3183 28.4101 39.7257 28.4101 38.3032 26.4458C36.8808 24.4815 35.5515 23.4993 35.162 26.8437C34.7726 30.1881 36.3389 30.7723 37.5158 30.9671C38.4298 31.0758 39.3535 31.0758 40.2675 30.9671C40.2675 30.9671 42.2403 35.6831 43.6119 36.2758C44.9836 36.8685 51.6724 37.6559 53.044 36.081C54.4156 34.5062 53.4419 27.4279 53.4419 27.4279C53.4419 27.4279 55.4062 27.0385 55.4062 25.2689C55.4062 23.4993 52.2651 20.9423 52.2651 20.9423C52.2651 20.9423 53.044 19.7654 52.4598 17.0137C52.0169 15.2036 51.1621 13.5202 49.9621 12.0945V12.0945Z" fill="#FFC0BB" fill-opacity="0.2"/>
<path d="M49.9621 12.0945C49.9621 12.0945 40.7247 16.421 40.7247 18.0213C40.7247 19.6215 44.6534 20.1803 43.4765 22.1531C42.917 23.1311 42.2527 24.0453 41.4952 24.8794C41.4952 24.8794 43.0616 27.6311 41.69 28.0206C40.3183 28.4101 39.7257 28.4101 38.3032 26.4458C36.8808 24.4815 35.5515 23.4993 35.162 26.8437C34.7726 30.1881 36.3389 30.7723 37.5158 30.9671C38.4298 31.0758 39.3535 31.0758 40.2675 30.9671C40.2675 30.9671 42.2403 35.6831 43.6119 36.2758C44.9836 36.8685 51.6724 37.6559 53.044 36.081C54.4156 34.5062 53.4419 27.4279 53.4419 27.4279C53.4419 27.4279 55.4062 27.0385 55.4062 25.2689C55.4062 23.4993 52.2651 20.9423 52.2651 20.9423C52.2651 20.9423 53.044 19.7654 52.4598 17.0137C52.0169 15.2036 51.1621 13.5202 49.9621 12.0945V12.0945Z" stroke="#263238" stroke-miterlimit="10"/>
<path d="M50.2245 21.8144C50.2245 22.4325 49.979 22.9405 49.6657 22.9405C49.3525 22.9405 49.1069 22.4325 49.1069 21.8144C49.1069 21.1963 49.3525 20.6968 49.6657 20.6968C49.979 20.6968 50.2245 21.1963 50.2245 21.8144Z" fill="#263238"/>
<path d="M47.7353 19.8078C47.7353 19.8078 48.0232 18.1144 50.5717 18.4446" stroke="#263238" stroke-linecap="round" stroke-linejoin="round"/>
<path d="M51.0628 29.9849C50.1111 29.9023 49.2311 29.4456 48.6158 28.7149" stroke="#263238" stroke-linecap="round" stroke-linejoin="round"/>
<path d="M29.6416 124.873C29.6416 124.873 31.4366 142.577 33.7396 150.273C36.0426 157.97 36.0511 161.28 35.2806 167.978C34.5101 174.675 31.9446 180.805 33.7396 186.96C35.5346 193.116 39.133 219.456 39.133 220.48C39.133 221.505 38.8705 223.02 40.1575 223.562C41.4444 224.104 52.4683 216.636 52.7307 215.095C52.9932 213.555 50.9358 208.94 50.9358 204.834C50.9358 200.727 52.2143 176.698 52.2143 165.158C52.2143 153.618 53.5012 131.545 49.3948 121.283" fill="#263238"/>
<path d="M29.6416 124.873C29.6416 124.873 31.4366 142.577 33.7396 150.273C36.0426 157.97 36.0511 161.28 35.2806 167.978C34.5101 174.675 31.9446 180.805 33.7396 186.96C35.5346 193.116 39.133 219.456 39.133 220.48C39.133 221.505 38.8705 223.02 40.1575 223.562C41.4444 224.104 52.4683 216.636 52.7307 215.095C52.9932 213.555 50.9358 208.94 50.9358 204.834C50.9358 200.727 52.2143 176.698 52.2143 165.158C52.2143 153.618 53.5012 131.545 49.3948 121.283" stroke="#263238" stroke-miterlimit="10"/>
<path d="M31.1149 136.049C31.1149 136.049 32.3256 144.66 33.7565 150.273C35.1874 155.887 36.6522 158.52 34.908 165.514C33.1639 172.507 32.5712 174.827 33.4433 178.349" stroke="white" stroke-linecap="round" stroke-linejoin="round"/>
<path d="M188.022 210.083C188.022 210.083 177.524 213.588 175.026 214.317C172.528 215.045 170.276 215.57 172.528 218.067C174.78 220.565 185.779 220.819 189.022 220.819C192.264 220.819 194.525 222.563 195.27 220.565C196.015 218.567 196.024 213.063 196.024 213.063L188.022 210.083Z" fill="#5CAA47" stroke="#263238" stroke-miterlimit="10"/>
<path d="M195.592 219.371C192.798 219.287 187.523 219.024 181.283 218.22C178.005 217.905 174.785 217.142 171.715 215.951C171.487 216.45 171.715 217.119 172.562 218.084C174.814 220.582 185.813 220.836 189.055 220.836C192.298 220.836 194.559 222.58 195.304 220.582C195.437 220.188 195.533 219.783 195.592 219.371Z" fill="white" stroke="#263238" stroke-miterlimit="10"/>
<path d="M219.765 212.581C219.765 212.581 211.763 218.584 209.52 219.828C207.276 221.073 206.768 223.08 208.766 223.08C210.764 223.08 227.012 223.579 229.264 222.081C231.517 220.582 228.265 213.334 228.265 213.334C228.265 213.334 222.262 212.581 219.765 212.581Z" fill="#5CAA47" stroke="#263238" stroke-miterlimit="10"/>
<path d="M229.264 222.081C229.899 221.657 230.111 220.768 230.043 219.718C222.78 220.997 215.395 221.451 208.03 221.073C207.234 222.098 207.395 223.08 208.8 223.08C210.764 223.08 227.012 223.579 229.264 222.081Z" fill="white" stroke="#263238" stroke-miterlimit="10"/>
<path d="M200.519 96.5682C200.519 96.5682 189.513 134.804 189.021 143.805C188.53 152.805 188.022 200.592 188.022 202.836V210.083L196.024 213.08C196.024 213.08 199.774 184.793 200.519 178.045C201.265 171.297 201.773 163.795 202.772 160.264C203.771 156.734 205.769 142.484 206.522 139.52C207.276 136.557 209.02 124.026 208.521 109.776C208.021 95.5268 202.272 93.0629 200.519 96.5682Z" fill="#263238" stroke="#263238" stroke-miterlimit="10"/>
<path d="M199.275 93.8165C199.275 93.8165 199.52 105.06 199.774 116.059C200.028 127.057 199.275 143.805 201.773 155.802C204.27 167.8 214.016 193.844 215.015 198.086C216.014 202.328 219.519 213.588 219.519 213.588C219.519 213.588 225.014 214.088 228.265 213.334C228.265 213.334 225.014 189.043 224.515 179.543C224.015 170.043 218.012 156.547 216.767 153.296C215.523 150.045 219.299 124.06 219.299 124.06C219.299 124.06 225.293 113.053 223.795 106.06C222.941 101.927 220.95 98.1143 218.046 95.0526C218.046 95.0526 203.017 97.1016 199.275 93.8165Z" fill="#263238" stroke="#263238" stroke-miterlimit="10"/>
<path d="M200.079 109.489C200.079 109.489 199.791 138.377 200.926 146.548C202.06 154.718 203.254 157.936 203.254 157.936" stroke="white" stroke-linecap="round" stroke-linejoin="round"/>
<path d="M217.512 46.3005C217.512 46.3005 214.515 44.0568 208.021 48.8406C201.527 53.6244 194.025 66.5786 194.525 71.5825C195.024 76.5864 199.275 91.3272 199.275 93.8249C199.275 96.3227 200.02 95.3236 203.017 96.3227C206.014 97.3217 214.515 97.0762 216.513 96.0771C218.512 95.078 217.512 88.5755 218.012 83.0805C218.512 77.5855 221.763 66.8326 221.517 59.0855C221.272 51.3383 218.512 47.325 217.512 46.3005Z" fill="#5CAA47" stroke="#263238" stroke-miterlimit="10"/>
<path d="M205.269 17.835C205.269 17.835 202.272 21.5858 202.272 24.0835C202.272 26.5812 201.713 29.1636 200.215 30.3913C198.716 31.619 198.767 32.8298 200.02 33.0838L201.273 33.3293C201.273 33.3293 201.976 38.782 202.966 40.7886C203.957 42.7953 207.513 41.0765 208.258 40.7886C209.003 40.5007 208.013 48.0362 208.013 48.7898C208.013 49.5433 215.506 48.5358 216.479 48.5358C217.453 48.5358 216.979 39.5355 217.978 36.7923C218.977 34.049 222.212 30.5437 218.232 24.5407C214.253 18.5378 207.522 13.5847 205.269 17.835Z" fill="#FFC0BB"/>
<path d="M205.269 17.835C205.269 17.835 202.272 21.5858 202.272 24.0835C202.272 26.5812 201.713 29.1636 200.215 30.3913C198.716 31.619 198.767 32.8298 200.02 33.0838L201.273 33.3293C201.273 33.3293 201.976 38.782 202.966 40.7886C203.957 42.7953 207.513 41.0765 208.258 40.7886C209.003 40.5007 208.013 48.0362 208.013 48.7898C208.013 49.5433 215.506 48.5358 216.479 48.5358C217.453 48.5358 216.979 39.5355 217.978 36.7923C218.977 34.049 222.212 30.5437 218.232 24.5407C214.253 18.5378 207.522 13.5847 205.269 17.835Z" fill="#FFC0BB" fill-opacity="0.2"/>
<path d="M205.269 17.835C205.269 17.835 202.272 21.5858 202.272 24.0835C202.272 26.5812 201.713 29.1636 200.215 30.3913C198.716 31.619 198.767 32.8298 200.02 33.0838L201.273 33.3293C201.273 33.3293 201.976 38.782 202.966 40.7886C203.957 42.7953 207.513 41.0765 208.258 40.7886C209.003 40.5007 208.013 48.0362 208.013 48.7898C208.013 49.5433 215.506 48.5358 216.479 48.5358C217.453 48.5358 216.979 39.5355 217.978 36.7923C218.977 34.049 222.212 30.5437 218.232 24.5407C214.253 18.5378 207.522 13.5847 205.269 17.835Z" stroke="#263238" stroke-miterlimit="10"/>
<path d="M204.177 28.9774C204.177 29.5955 204.423 30.095 204.736 30.095C205.049 30.095 205.295 29.5955 205.295 28.9774C205.295 28.3593 205.049 27.8513 204.736 27.8513C204.423 27.8513 204.177 28.3593 204.177 28.9774Z" fill="#263238"/>
<path d="M202.653 35.2936C202.653 35.2936 203.5 36.2673 205.413 34.9634" stroke="#263238" stroke-linecap="round" stroke-linejoin="round"/>
<path d="M203.305 25.8446C203.305 25.8446 204.761 24.0581 206.548 26.3357" stroke="#263238" stroke-linecap="round" stroke-linejoin="round"/>
<path d="M212.365 45.8602C212.365 45.8602 205.879 48.1886 204.838 49.7465C203.796 51.3044 203.026 53.8953 204.584 53.8953C206.141 53.8953 212.873 49.3655 214.693 48.9676C216.513 48.5696 214.693 43.5234 212.365 45.8602Z" fill="#FFC0BB"/>
<path d="M212.365 45.8602C212.365 45.8602 205.879 48.1886 204.838 49.7465C203.796 51.3044 203.026 53.8953 204.584 53.8953C206.141 53.8953 212.873 49.3655 214.693 48.9676C216.513 48.5696 214.693 43.5234 212.365 45.8602Z" fill="#FFC0BB" fill-opacity="0.2"/>
<path d="M212.365 45.8602C212.365 45.8602 205.879 48.1886 204.838 49.7465C203.796 51.3044 203.026 53.8953 204.584 53.8953C206.141 53.8953 212.873 49.3655 214.693 48.9676C216.513 48.5696 214.693 43.5234 212.365 45.8602Z" stroke="#263238" stroke-miterlimit="10"/>
<path d="M205.269 17.835C205.888 21.1785 207.254 24.3391 209.266 27.0808C212.517 31.3142 215.768 30.3321 215.015 33.8543C214.261 37.3765 208.766 42.3211 211.018 47.8584C213.271 53.3958 218.266 54.3525 219.265 56.6047C220.264 58.8569 222.516 59.602 220.019 68.6022C217.521 77.6025 213.77 84.8416 217.013 93.3423C220.256 101.843 228.765 104.087 235.259 101.089C241.753 98.0922 237.757 88.5924 239.264 82.8434C240.771 77.0945 253.759 72.5986 249.255 56.5962C244.75 40.5939 234.26 36.352 231.474 30.8486C228.689 25.3451 229.231 16.1078 223.482 12.357C217.733 8.60617 211.23 11.8574 208.986 12.357C206.743 12.8565 205.481 9.10571 200.985 10.8583C196.489 12.611 193.805 21.0186 201.832 22.7797C202.674 20.9399 203.838 19.2654 205.269 17.835V17.835Z" fill="#263238" stroke="#263238" stroke-miterlimit="10"/>
<path d="M213.533 29.8071C215.101 31.4325 216.978 32.728 219.053 33.6172C228.367 37.6982 234.81 43.5403 234.81 53.455C234.81 63.3697 225.497 70.0924 225.175 78.5592C224.853 87.026 229.552 93.4355 234.488 90.8107C239.425 88.186 237.122 82.9366 235.335 82.9366" stroke="white" stroke-linecap="round" stroke-linejoin="round"/>
<path d="M209.139 20.4851C209.33 22.233 209.823 23.9345 210.595 25.5144" stroke="white" stroke-linecap="round" stroke-linejoin="round"/>
<path d="M239.535 48.1378C241.415 52.2845 242.391 56.7843 242.396 61.3376C242.1 71.5486 229.849 76.2223 228.384 82.3523C227.071 87.8642 231.017 92.8512 234.514 90.8192" stroke="white" stroke-linecap="round" stroke-linejoin="round"/>
<path d="M235.979 41.4914C236.802 42.7253 237.549 44.0091 238.214 45.3353" stroke="white" stroke-linecap="round" stroke-linejoin="round"/>
<path d="M222.262 61.3376C223.446 57.4208 223.343 53.2274 221.966 49.374C219.629 43.244 217.004 40.3229 217.004 37.114" stroke="white" stroke-linecap="round" stroke-linejoin="round"/>
<path d="M205.269 17.835C204.83 17.0713 204.205 16.4314 203.451 15.9753C202.697 15.5192 201.84 15.2619 200.96 15.2272C198.039 15.2272 198.327 19.0204 201.535 19.6046" stroke="white" stroke-linecap="round" stroke-linejoin="round"/>
<path d="M33.7565 54.5811C33.7565 54.5811 30.1666 59.712 30.9371 64.8429C31.7076 69.9738 43.2563 95.6284 44.5348 97.4233C45.8133 99.2183 54.2802 101.022 55.0506 93.8334C55.8211 86.645 45.8218 65.6134 44.2808 60.4825C42.7399 55.3516 39.4039 54.3271 39.4039 54.3271" fill="#5CAA47"/>
<path d="M33.7565 54.5811C33.7565 54.5811 30.1666 59.712 30.9371 64.8429C31.7076 69.9738 43.2563 95.6284 44.5348 97.4233C45.8133 99.2183 54.2802 101.022 55.0506 93.8334C55.8211 86.645 45.8218 65.6134 44.2808 60.4825C42.7399 55.3516 39.4039 54.3271 39.4039 54.3271" stroke="#263238" stroke-miterlimit="10"/>
<path d="M53.1456 88.4654C53.1456 88.4654 60.6642 89.4221 65.9305 92.6057C71.1969 95.7892 87.9443 101.75 87.9443 101.75L86.742 106.72C86.742 106.72 68.3097 104.595 60.4948 103.155C52.6799 101.716 47.6083 101.03 44.7211 96.8814" fill="#5CAA47"/>
<path d="M53.1456 88.4654C53.1456 88.4654 60.6642 89.4221 65.9305 92.6057C71.1969 95.7892 87.9443 101.75 87.9443 101.75L86.742 106.72C86.742 106.72 68.3097 104.595 60.4948 103.155C52.6799 101.716 47.6083 101.03 44.7211 96.8814" stroke="#263238" stroke-miterlimit="10"/>
<path d="M103.176 108.049L96.335 105.907L96.4112 105.187C96.4112 105.187 102.245 106.314 102.88 106.39C103.515 106.466 103.727 106.153 103.727 105.755C103.685 105.453 103.545 105.173 103.329 104.959L93.761 101.521L99.256 100.488C100.052 99.8533 99.1714 99.2183 99.1714 99.2183L92.7196 99.3707L87.9613 101.75L86.759 106.72C86.759 106.72 95.5899 114.34 95.9878 114.586C96.3858 114.831 96.6228 115.221 97.2579 114.823C97.8929 114.425 97.6558 113.976 97.6558 113.976L94.8363 111.08L99.6963 112.511C100.247 112.672 100.331 112.833 100.729 112.672C101.127 112.511 101.203 111.478 101.203 111.478L95.5476 108.854L95.7931 108.295C95.7931 108.295 102.067 109.802 102.456 109.802C102.846 109.802 103.092 109.802 103.413 109.091C103.514 108.92 103.545 108.716 103.501 108.523C103.457 108.329 103.341 108.16 103.176 108.049V108.049Z" fill="#FFC0BB"/>
<path d="M103.176 108.049L96.335 105.907L96.4112 105.187C96.4112 105.187 102.245 106.314 102.88 106.39C103.515 106.466 103.727 106.153 103.727 105.755C103.685 105.453 103.545 105.173 103.329 104.959L93.761 101.521L99.256 100.488C100.052 99.8533 99.1714 99.2183 99.1714 99.2183L92.7196 99.3707L87.9613 101.75L86.759 106.72C86.759 106.72 95.5899 114.34 95.9878 114.586C96.3858 114.831 96.6228 115.221 97.2579 114.823C97.8929 114.425 97.6558 113.976 97.6558 113.976L94.8363 111.08L99.6963 112.511C100.247 112.672 100.331 112.833 100.729 112.672C101.127 112.511 101.203 111.478 101.203 111.478L95.5476 108.854L95.7931 108.295C95.7931 108.295 102.067 109.802 102.456 109.802C102.846 109.802 103.092 109.802 103.413 109.091C103.514 108.92 103.545 108.716 103.501 108.523C103.457 108.329 103.341 108.16 103.176 108.049V108.049Z" fill="#FFC0BB" fill-opacity="0.2"/>
<path d="M103.176 108.049L96.335 105.907L96.4112 105.187C96.4112 105.187 102.245 106.314 102.88 106.39C103.515 106.466 103.727 106.153 103.727 105.755C103.685 105.453 103.545 105.173 103.329 104.959L93.761 101.521L99.256 100.488C100.052 99.8533 99.1714 99.2183 99.1714 99.2183L92.7196 99.3707L87.9613 101.75L86.759 106.72C86.759 106.72 95.5899 114.34 95.9878 114.586C96.3858 114.831 96.6228 115.221 97.2579 114.823C97.8929 114.425 97.6558 113.976 97.6558 113.976L94.8363 111.08L99.6963 112.511C100.247 112.672 100.331 112.833 100.729 112.672C101.127 112.511 101.203 111.478 101.203 111.478L95.5476 108.854L95.7931 108.295C95.7931 108.295 102.067 109.802 102.456 109.802C102.846 109.802 103.092 109.802 103.413 109.091C103.514 108.92 103.545 108.716 103.501 108.523C103.457 108.329 103.341 108.16 103.176 108.049V108.049Z" stroke="#263238" stroke-linecap="round" stroke-linejoin="round"/>
<path d="M219.138 56.7994C219.138 56.7994 215.667 51.9818 210.773 55.106C205.879 58.2303 188.132 74.6729 188.132 74.6729C188.132 74.6729 184.543 78.9063 189.826 82.0052C195.109 85.1041 216.784 65.8335 219.13 64.2248" fill="#5CAA47"/>
<path d="M219.138 56.7994C219.138 56.7994 215.667 51.9818 210.773 55.106C205.879 58.2303 188.132 74.6729 188.132 74.6729C188.132 74.6729 184.543 78.9063 189.826 82.0052C195.109 85.1041 216.784 65.8335 219.13 64.2248" stroke="#263238" stroke-miterlimit="10"/>
<path d="M191.714 74.7491C191.714 74.7491 189.081 73.0981 183.095 72.0482C177.109 70.9983 156.543 59.5427 156.543 59.5427L153.156 63.7761C153.156 63.7761 167.626 74.4189 175.17 78.9741C182.714 83.5292 186.084 84.7315 188.505 84.486C190.927 84.2404 196.574 78.9487 196.574 78.9487" fill="#5CAA47"/>
<path d="M191.714 74.7491C191.714 74.7491 189.081 73.0981 183.095 72.0482C177.109 70.9983 156.543 59.5427 156.543 59.5427L153.156 63.7761C153.156 63.7761 167.626 74.4189 175.17 78.9741C182.714 83.5292 186.084 84.7315 188.505 84.486C190.927 84.2404 196.574 78.9487 196.574 78.9487" stroke="#263238" stroke-miterlimit="10"/>
<path d="M142.344 50.3731L147.813 54.7335L148.347 54.2848C148.347 54.2848 144.266 50.1868 143.859 49.7127C143.453 49.2385 143.571 48.866 143.859 48.6543C144.123 48.5302 144.419 48.4917 144.706 48.5443L152.682 54.4118L150.531 49.4079C150.616 48.4173 151.607 48.7813 151.607 48.7813L154.993 54.0816L156.043 59.2972L153.418 64.0132C153.418 64.0132 141.336 59.9068 140.93 59.7205C140.523 59.5342 140.083 59.5512 140.041 58.8145C139.998 58.0779 140.532 58.0187 140.532 58.0187L144.41 58.7722L140.65 55.6141C140.219 55.25 140.049 55.2754 139.956 54.8605C139.863 54.4456 140.667 53.8276 140.667 53.8276L145.866 56.9688L146.188 56.4692C146.188 56.4692 141.539 52.2358 141.319 51.8887C141.099 51.5415 140.972 51.3722 141.379 50.7287C141.463 50.5567 141.61 50.4238 141.79 50.3576C141.97 50.2914 142.168 50.2969 142.344 50.3731V50.3731Z" fill="#FFC0BB"/>
<path d="M142.344 50.3731L147.813 54.7335L148.347 54.2848C148.347 54.2848 144.266 50.1868 143.859 49.7127C143.453 49.2385 143.571 48.866 143.859 48.6543C144.123 48.5302 144.419 48.4917 144.706 48.5443L152.682 54.4118L150.531 49.4079C150.616 48.4173 151.607 48.7813 151.607 48.7813L154.993 54.0816L156.043 59.2972L153.418 64.0132C153.418 64.0132 141.336 59.9068 140.93 59.7205C140.523 59.5342 140.083 59.5512 140.041 58.8145C139.998 58.0779 140.532 58.0187 140.532 58.0187L144.41 58.7722L140.65 55.6141C140.219 55.25 140.049 55.2754 139.956 54.8605C139.863 54.4456 140.667 53.8276 140.667 53.8276L145.866 56.9688L146.188 56.4692C146.188 56.4692 141.539 52.2358 141.319 51.8887C141.099 51.5415 140.972 51.3722 141.379 50.7287C141.463 50.5567 141.61 50.4238 141.79 50.3576C141.97 50.2914 142.168 50.2969 142.344 50.3731V50.3731Z" fill="#FFC0BB" fill-opacity="0.2"/>
<path d="M142.344 50.3731L147.813 54.7335L148.347 54.2848C148.347 54.2848 144.266 50.1868 143.859 49.7127C143.453 49.2385 143.571 48.866 143.859 48.6543C144.123 48.5302 144.419 48.4917 144.706 48.5443L152.682 54.4118L150.531 49.4079C150.616 48.4173 151.607 48.7813 151.607 48.7813L154.993 54.0816L156.043 59.2972L153.418 64.0132C153.418 64.0132 141.336 59.9068 140.93 59.7205C140.523 59.5342 140.083 59.5512 140.041 58.8145C139.998 58.0779 140.532 58.0187 140.532 58.0187L144.41 58.7722L140.65 55.6141C140.219 55.25 140.049 55.2754 139.956 54.8605C139.863 54.4456 140.667 53.8276 140.667 53.8276L145.866 56.9688L146.188 56.4692C146.188 56.4692 141.539 52.2358 141.319 51.8887C141.099 51.5415 140.972 51.3722 141.379 50.7287C141.463 50.5567 141.61 50.4238 141.79 50.3576C141.97 50.2914 142.168 50.2969 142.344 50.3731V50.3731Z" stroke="#263238" stroke-linecap="round" stroke-linejoin="round"/>
</svg>
