<svg width="40" height="40" viewBox="0 0 40 40" fill="none" xmlns="http://www.w3.org/2000/svg">
<g clip-path="url(#clip0_109_4366)">
<circle cx="20" cy="20" r="19.5" fill="#FFAE34" fill-opacity="0.5" stroke="#5CAA47"/>
<path d="M29.8661 10.976V13.6664H9.03662V10.976C9.03662 10.4653 9.45018 10.0508 9.9618 10.0508H28.9409C29.4525 10.0508 29.8661 10.4653 29.8661 10.976Z" fill="#95C347"/>
<path d="M29.8661 13.6665V25.3543C29.8661 25.865 29.4525 26.2794 28.9409 26.2794H9.9618C9.45018 26.2794 9.03662 25.865 9.03662 25.3543V13.6665H29.8661Z" fill="#FFE2E2"/>
<path d="M12.637 18.0631C13.2646 18.0631 13.7733 17.5544 13.7733 16.9268C13.7733 16.2993 13.2646 15.7905 12.637 15.7905C12.0095 15.7905 11.5007 16.2993 11.5007 16.9268C11.5007 17.5544 12.0095 18.0631 12.637 18.0631Z" fill="#95C347"/>
<path d="M17.1798 18.0631C17.8073 18.0631 18.3161 17.5544 18.3161 16.9268C18.3161 16.2993 17.8073 15.7905 17.1798 15.7905C16.5522 15.7905 16.0435 16.2993 16.0435 16.9268C16.0435 17.5544 16.5522 18.0631 17.1798 18.0631Z" fill="#95C347"/>
<path d="M21.7227 18.0631C22.3503 18.0631 22.859 17.5544 22.859 16.9268C22.859 16.2993 22.3503 15.7905 21.7227 15.7905C21.0952 15.7905 20.5864 16.2993 20.5864 16.9268C20.5864 17.5544 21.0952 18.0631 21.7227 18.0631Z" fill="#95C347"/>
<path d="M26.2655 18.0631C26.893 18.0631 27.4018 17.5544 27.4018 16.9268C27.4018 16.2993 26.893 15.7905 26.2655 15.7905C25.6379 15.7905 25.1292 16.2993 25.1292 16.9268C25.1292 17.5544 25.6379 18.0631 26.2655 18.0631Z" fill="#95C347"/>
<path d="M12.637 22.1769C13.2646 22.1769 13.7733 21.6682 13.7733 21.0406C13.7733 20.413 13.2646 19.9043 12.637 19.9043C12.0095 19.9043 11.5007 20.413 11.5007 21.0406C11.5007 21.6682 12.0095 22.1769 12.637 22.1769Z" fill="#95C347"/>
<path d="M17.1798 22.1769C17.8073 22.1769 18.3161 21.6682 18.3161 21.0406C18.3161 20.413 17.8073 19.9043 17.1798 19.9043C16.5522 19.9043 16.0435 20.413 16.0435 21.0406C16.0435 21.6682 16.5522 22.1769 17.1798 22.1769Z" fill="#95C347"/>
<path d="M21.7227 22.1769C22.3503 22.1769 22.859 21.6682 22.859 21.0406C22.859 20.413 22.3503 19.9043 21.7227 19.9043C21.0952 19.9043 20.5864 20.413 20.5864 21.0406C20.5864 21.6682 21.0952 22.1769 21.7227 22.1769Z" fill="#95C347"/>
<path d="M11.3496 10.0508C10.8379 10.0508 10.4244 10.4653 10.4244 10.976V13.6664H9.03662V10.976C9.03662 10.4653 9.45018 10.0508 9.9618 10.0508H11.3496Z" fill="#5CAA47"/>
<path d="M11.3496 26.2794H9.9618C9.45018 26.2794 9.03662 25.865 9.03662 25.3543V13.6665H10.4244V25.3543C10.4244 25.865 10.8379 26.2794 11.3496 26.2794Z" fill="#FFEFEE"/>
<path d="M29.8659 10.976V13.6664H28.4782V10.976C28.4782 10.4653 28.0646 10.0508 27.553 10.0508H28.9407C29.4524 10.0508 29.8659 10.4653 29.8659 10.976Z" fill="#467C37"/>
<path d="M29.8659 13.6665V25.3543C29.8659 25.865 29.4524 26.2794 28.9407 26.2794H27.553C28.0646 26.2794 28.4782 25.865 28.4782 25.3543V13.6665H29.8659Z" fill="#467C37"/>
<path d="M25.7426 30.964C28.4924 30.964 30.7215 28.7348 30.7215 25.985C30.7215 23.2352 28.4924 21.0061 25.7426 21.0061C22.9928 21.0061 20.7637 23.2352 20.7637 25.985C20.7637 28.7348 22.9928 30.964 25.7426 30.964Z" fill="#FFAE34"/>
<path d="M26.5419 30.9004C26.2818 30.942 26.0143 30.9643 25.7424 30.9643C22.9932 30.9643 20.7642 28.7353 20.7642 25.985C20.7642 23.2359 22.9932 21.0068 25.7424 21.0068C26.0142 21.0068 26.2817 21.0292 26.5419 21.0708C24.1721 21.4535 22.3632 23.5076 22.3632 25.985C22.3632 28.4626 24.1721 30.5177 26.5419 30.9004Z" fill="#FFAE34"/>
<path d="M30.7215 25.9849C30.7215 28.7352 28.4924 30.9642 25.7422 30.9642C25.4703 30.9642 25.2028 30.9418 24.9426 30.9003C27.3134 30.5177 29.1224 28.4635 29.1224 25.985C29.1224 23.5077 27.3134 21.4535 24.9426 21.0708C25.2027 21.0292 25.4703 21.0068 25.7422 21.0068C28.4924 21.0067 30.7215 23.2358 30.7215 25.9849Z" fill="#FFB648"/>
<path d="M16.738 23.8181H16.1792C15.9747 23.8181 15.8091 23.9837 15.8091 24.1882C15.8091 24.3927 15.9747 24.5583 16.1792 24.5583H16.738C16.9424 24.5583 17.108 24.3927 17.108 24.1882C17.108 23.9837 16.9424 23.8181 16.738 23.8181Z" fill="#5CAA47"/>
<path d="M14.7913 23.8181H11.6457C11.4412 23.8181 11.2756 23.9837 11.2756 24.1882C11.2756 24.3927 11.4412 24.5583 11.6457 24.5583H14.7913C14.9958 24.5583 15.1614 24.3927 15.1614 24.1882C15.1614 23.9837 14.9958 23.8181 14.7913 23.8181Z" fill="#5CAA47"/>
<path d="M30.2363 23.0872C30.2363 21.554 30.2363 12.4808 30.2363 10.9757C30.2363 10.2615 29.6553 9.68049 28.9411 9.68049H26.6369V8.37007C26.6369 8.1657 26.4712 8 26.2669 8C26.0625 8 25.8968 8.1657 25.8968 8.37007V9.68049H13.006V8.37007C13.006 8.1657 12.8403 8 12.6359 8C12.4316 8 12.2659 8.1657 12.2659 8.37007V9.68049H9.962C9.24776 9.68049 8.66675 10.2615 8.66675 10.9757C8.66675 12.5783 8.66675 22.901 8.66675 25.3539C8.66675 26.0682 9.24776 26.6492 9.962 26.6492H20.435C20.7625 29.2868 23.0181 31.3333 25.7427 31.3333C30.0019 31.3333 32.5092 26.5956 30.2363 23.0872ZM9.962 10.4206H12.2659V11.7315C12.2659 11.9359 12.4316 12.1016 12.6359 12.1016C12.8403 12.1016 13.006 11.9359 13.006 11.7315V10.4206H25.8968V11.7315C25.8968 11.9359 26.0625 12.1016 26.2669 12.1016C26.4712 12.1016 26.6369 11.9359 26.6369 11.7315V10.4206H28.9411C29.2473 10.4206 29.4962 10.6695 29.4962 10.9757V13.2961H9.40689V10.9757C9.40689 10.6695 9.65576 10.4206 9.962 10.4206ZM9.40689 25.3539V14.0362H29.4962V22.1778C28.5303 21.2248 27.2036 20.6355 25.7427 20.6355C24.8277 20.6355 23.9645 20.8668 23.2105 21.2739C23.2226 21.198 23.229 21.1203 23.229 21.0407C23.229 20.2099 22.5537 19.5336 21.7228 19.5336C20.892 19.5336 20.2167 20.2099 20.2167 21.0407C20.2167 21.8466 20.8532 22.5071 21.6498 22.5451C20.8809 23.4582 20.4119 24.6295 20.3943 25.909H9.962C9.65576 25.909 9.40689 25.6601 9.40689 25.3539ZM21.7228 21.8068C21.3 21.8068 20.9568 21.4626 20.9568 21.0407C20.9568 20.6179 21.3 20.2738 21.7228 20.2738C22.1456 20.2738 22.4889 20.6179 22.4889 21.0407C22.4889 21.4626 22.1456 21.8068 21.7228 21.8068ZM25.7427 30.5932C23.427 30.5932 21.5045 28.877 21.1816 26.6492C21.1502 26.4317 21.1335 26.2106 21.1335 25.9849C21.1335 25.9599 21.1335 25.934 21.1344 25.909C21.1751 23.4018 23.2263 21.3757 25.7427 21.3757C27.2896 21.3757 28.6598 22.1417 29.4962 23.3139C31.6467 26.328 29.5037 30.5932 25.7427 30.5932Z" fill="#5CAA47"/>
<path d="M26.1127 25.8858V23.5756C26.1127 23.3721 25.9471 23.2056 25.7426 23.2056C25.5382 23.2056 25.3726 23.3721 25.3726 23.5756V25.9089C25.376 25.9721 25.3636 26.0382 25.3994 26.1217C25.3994 26.1338 26.3988 27.8674 26.4041 27.8768C26.4726 27.9961 26.5975 28.0627 26.7252 28.0627C27.0066 28.0627 27.1889 27.7563 27.0462 27.5086C27.0403 27.4982 26.1073 25.8764 26.1127 25.8858Z" fill="#5CAA47"/>
<path d="M12.6377 18.4335C13.4676 18.4335 14.1439 17.7572 14.1439 16.9264C14.1439 16.0965 13.4676 15.4202 12.6377 15.4202C11.8069 15.4202 11.1306 16.0965 11.1306 16.9264C11.1306 17.7572 11.8069 18.4335 12.6377 18.4335ZM12.6377 16.1603C13.0596 16.1603 13.4038 16.5045 13.4038 16.9264C13.4038 17.3492 13.0596 17.6933 12.6377 17.6933C12.2149 17.6933 11.8708 17.3492 11.8708 16.9264C11.8708 16.5045 12.2149 16.1603 12.6377 16.1603Z" fill="#5CAA47"/>
<path d="M17.1803 15.4202C16.3495 15.4202 15.6741 16.0965 15.6741 16.9264C15.6741 17.7572 16.3495 18.4335 17.1803 18.4335C18.0111 18.4335 18.6864 17.7572 18.6864 16.9264C18.6864 16.0965 18.0111 15.4202 17.1803 15.4202ZM17.1803 17.6933C16.7575 17.6933 16.4142 17.3492 16.4142 16.9264C16.4142 16.5045 16.7575 16.1603 17.1803 16.1603C17.6021 16.1603 17.9463 16.5045 17.9463 16.9264C17.9463 17.3492 17.6021 17.6933 17.1803 17.6933Z" fill="#5CAA47"/>
<path d="M21.7227 18.4335C22.5535 18.4335 23.2289 17.7572 23.2289 16.9264C23.2289 16.0965 22.5535 15.4202 21.7227 15.4202C20.8919 15.4202 20.2166 16.0965 20.2166 16.9264C20.2166 17.7572 20.8919 18.4335 21.7227 18.4335ZM21.7227 16.1603C22.1455 16.1603 22.4888 16.5045 22.4888 16.9264C22.4888 17.3492 22.1455 17.6933 21.7227 17.6933C21.2999 17.6933 20.9567 17.3492 20.9567 16.9264C20.9567 16.5045 21.2999 16.1603 21.7227 16.1603Z" fill="#5CAA47"/>
<path d="M26.2655 18.4335C27.0963 18.4335 27.7717 17.7572 27.7717 16.9264C27.7717 16.0965 27.0963 15.4202 26.2655 15.4202C25.4347 15.4202 24.7593 16.0965 24.7593 16.9264C24.7593 17.7572 25.4347 18.4335 26.2655 18.4335ZM26.2655 16.1603C26.6883 16.1603 27.0315 16.5045 27.0315 16.9264C27.0315 17.3492 26.6883 17.6933 26.2655 17.6933C25.8427 17.6933 25.4994 17.3492 25.4994 16.9264C25.4994 16.5045 25.8427 16.1603 26.2655 16.1603Z" fill="#5CAA47"/>
<path d="M12.6377 22.547C13.4676 22.547 14.1439 21.8707 14.1439 21.0408C14.1439 20.21 13.4676 19.5337 12.6377 19.5337C11.8069 19.5337 11.1306 20.21 11.1306 21.0408C11.1306 21.8707 11.8069 22.547 12.6377 22.547ZM12.6377 20.2738C13.0596 20.2738 13.4038 20.618 13.4038 21.0408C13.4038 21.4627 13.0596 21.8069 12.6377 21.8069C12.2149 21.8069 11.8708 21.4627 11.8708 21.0408C11.8708 20.618 12.2149 20.2738 12.6377 20.2738Z" fill="#5CAA47"/>
<path d="M17.1803 19.5337C16.3495 19.5337 15.6741 20.21 15.6741 21.0408C15.6741 21.8707 16.3495 22.547 17.1803 22.547C18.0111 22.547 18.6864 21.8707 18.6864 21.0408C18.6864 20.21 18.0111 19.5337 17.1803 19.5337ZM17.1803 21.8069C16.7575 21.8069 16.4142 21.4627 16.4142 21.0408C16.4142 20.618 16.7575 20.2738 17.1803 20.2738C17.6021 20.2738 17.9463 20.618 17.9463 21.0408C17.9463 21.4627 17.6021 21.8069 17.1803 21.8069Z" fill="#5CAA47"/>
</g>
<defs>
<clipPath id="clip0_109_4366">
<rect width="40" height="40" fill="white"/>
</clipPath>
</defs>
</svg>
